<?xml version="1.0" encoding="utf-8"?>
<!-- Generator: Adobe Illustrator 22.0.1, SVG Export Plug-In . SVG Version: 6.00 Build 0)  -->
<svg version="1.1"
	 id="svg2" inkscape:version="0.91 r13725" sodipodi:docname="extinction.svg" xmlns:cc="http://creativecommons.org/ns#" xmlns:dc="http://purl.org/dc/elements/1.1/" xmlns:inkscape="http://www.inkscape.org/namespaces/inkscape" xmlns:rdf="http://www.w3.org/1999/02/22-rdf-syntax-ns#" xmlns:sodipodi="http://sodipodi.sourceforge.net/DTD/sodipodi-0.dtd" xmlns:svg="http://www.w3.org/2000/svg"
	 xmlns="http://www.w3.org/2000/svg" xmlns:xlink="http://www.w3.org/1999/xlink" x="0px" y="0px" viewBox="0 0 488.7 360.4"
	 style="enable-background:new 0 0 488.7 360.4;" xml:space="preserve">
<style type="text/css">
	.st0{fill:#FF2EF0;}
	.st1{fill:none;stroke:#FFFFFF;stroke-width:71.6937;stroke-linejoin:bevel;}
	.st2{fill:#FFE680;}
	.st3{fill:#AA8800;}
	.st4{fill:#554400;}
	.st5{fill:#2B2200;}
	.st6{fill:#222B00;}
	.st7{fill:#241F1C;}
</style>
<defs>
	
	<inkscape:path-effect  effect="spiro" id="path-effect4210" is_visible="true"></inkscape:path-effect>
</defs>
<sodipodi:namedview  bordercolor="#666666" borderopacity="1.0" fit-margin-bottom="0" fit-margin-left="0" fit-margin-right="0" fit-margin-top="0" id="base" inkscape:current-layer="layer1" inkscape:cx="150.98642" inkscape:cy="412.69492" inkscape:document-units="px" inkscape:pageopacity="0.0" inkscape:pageshadow="2" inkscape:window-height="1017" inkscape:window-maximized="1" inkscape:window-width="1920" inkscape:window-x="0" inkscape:window-y="30" inkscape:zoom="0.7" pagecolor="#ffffff" showgrid="false">
	</sodipodi:namedview>
<g>
	
		<ellipse id="path4580-0-8-01_1_" transform="matrix(0.9514 -0.3081 0.3081 0.9514 -59.3487 109.8034)" class="st0" cx="318.1" cy="242.9" rx="140.4" ry="67.7"/>
	
		<ellipse id="path4580-0-8_1_" transform="matrix(0.8806 -0.4738 0.4738 0.8806 -77.0054 165.3654)" class="st0" cx="289.7" cy="235.5" rx="201.3" ry="57.2"/>
	
		<ellipse id="path4580-0-8-0-4_1_" transform="matrix(0.9943 -0.1066 0.1066 0.9943 -32.5299 32.9986)" class="st0" cx="292.4" cy="320.8" rx="133.8" ry="25.4"/>
	
		<ellipse id="path4580-0-8-0_1_" transform="matrix(7.366049e-02 -0.9973 0.9973 7.366049e-02 -178.1817 469.5474)" class="st0" cx="163.7" cy="330.7" rx="24.1" ry="48.4"/>
	
		<ellipse id="path4580-0-8-9_1_" transform="matrix(0.8976 -0.4408 0.4408 0.8976 -75.2315 142.8581)" class="st0" cx="269.9" cy="233.4" rx="158.1" ry="42.9"/>
	
		<ellipse id="path4580-0-8-0-4-6_1_" transform="matrix(0.6088 -0.7934 0.7934 0.6088 -54.6177 411.0847)" class="st0" cx="389.5" cy="260.9" rx="77.5" ry="60.6"/>
	
		<path id="path4804-1_1_" inkscape:flatsided="true" inkscape:randomized="0" inkscape:rounded="0" inkscape:transform-center-x="1.2190895" inkscape:transform-center-y="7.6332382" sodipodi:arg1="-0.62024949" sodipodi:arg2="0.42694807" sodipodi:cx="371.77887" sodipodi:cy="1526.1575" sodipodi:r1="36.867107" sodipodi:r2="18.433554" sodipodi:sides="3" sodipodi:type="star" class="st0" d="
		M132.8,234.6l-14.1,45.9l-19.8-41.1L132.8,234.6z"/>
	
		<path id="path4804-0-9_1_" inkscape:flatsided="true" inkscape:randomized="0" inkscape:rounded="0" inkscape:transform-center-x="1.2990532" inkscape:transform-center-y="12.135937" sodipodi:arg1="-0.62024949" sodipodi:arg2="0.42694807" sodipodi:cx="301.77887" sodipodi:cy="1517.5861" sodipodi:r1="36.867107" sodipodi:r2="18.433554" sodipodi:sides="3" sodipodi:type="star" class="st0" d="
		M66.6,190.1l-15,73l-21.1-65.3L66.6,190.1z"/>
	
		<ellipse id="path4580-0-8-9-1_1_" transform="matrix(0.9179 -0.3967 0.3967 0.9179 -77.1662 121.9121)" class="st0" cx="256.1" cy="247.5" rx="132.8" ry="33.5"/>
	
		<path id="path4804_1_" inkscape:flatsided="true" inkscape:randomized="0" inkscape:rounded="0" inkscape:transform-center-x="1.7788436" inkscape:transform-center-y="7.6332382" sodipodi:arg1="-0.62024949" sodipodi:arg2="0.42694807" sodipodi:cx="324.85715" sodipodi:cy="1577.7908" sodipodi:r1="36.867107" sodipodi:r2="18.433554" sodipodi:sides="3" sodipodi:type="star" class="st0" d="
		M220.8,202l-20.6,45.9l-28.9-41.1L220.8,202z"/>
	
		<path id="path4804-0-9-7-4_1_" inkscape:flatsided="true" inkscape:randomized="0" inkscape:rounded="0" inkscape:transform-center-x="1.2990532" inkscape:transform-center-y="12.135937" sodipodi:arg1="-0.62024949" sodipodi:arg2="0.42694807" sodipodi:cx="301.77887" sodipodi:cy="1517.5861" sodipodi:r1="36.867107" sodipodi:r2="18.433554" sodipodi:sides="3" sodipodi:type="star" class="st0" d="
		M184.2,194.8l-15,73L148,202.6L184.2,194.8z"/>
	
		<path id="path4804-5_1_" inkscape:flatsided="true" inkscape:randomized="0" inkscape:rounded="0" inkscape:transform-center-x="1.0191707" inkscape:transform-center-y="7.2580232" sodipodi:arg1="-0.62024949" sodipodi:arg2="0.42694807" sodipodi:cx="338.92169" sodipodi:cy="1526.1575" sodipodi:r1="36.867107" sodipodi:r2="18.433554" sodipodi:sides="3" sodipodi:type="star" class="st0" d="
		M239.6,212.7l-11.8,43.7l-16.6-39L239.6,212.7z"/>
	
		<path id="path4804-2_1_" inkscape:flatsided="true" inkscape:randomized="0" inkscape:rounded="0" inkscape:transform-center-x="1.7788436" inkscape:transform-center-y="7.6332382" sodipodi:arg1="-0.62024949" sodipodi:arg2="0.42694807" sodipodi:cx="426.06451" sodipodi:cy="1581.3005" sodipodi:r1="36.867107" sodipodi:r2="18.433554" sodipodi:sides="3" sodipodi:type="star" class="st0" d="
		M299.7,204.8l-20.6,45.9l-28.9-41.1L299.7,204.8z"/>
	<ellipse id="path4580_1_" class="st0" cx="306.6" cy="120.6" rx="177.4" ry="113.5"/>
	
		<path id="path4804-0_1_" inkscape:flatsided="true" inkscape:randomized="0" inkscape:rounded="0" inkscape:transform-center-x="1.2990487" inkscape:transform-center-y="12.135937" sodipodi:arg1="-0.62024949" sodipodi:arg2="0.42694807" sodipodi:cx="301.77887" sodipodi:cy="1517.5861" sodipodi:r1="36.867107" sodipodi:r2="18.433554" sodipodi:sides="3" sodipodi:type="star" class="st0" d="
		M155,214.2l-15,73L118.9,222L155,214.2z"/>
	
		<ellipse id="path4580-0_1_" transform="matrix(0.9504 -0.3109 0.3109 0.9504 -37.4528 53.1806)" class="st0" cx="148.1" cy="144.1" rx="144.8" ry="77.6"/>
	<ellipse id="path4642_1_" class="st0" cx="313.8" cy="120.4" rx="36.7" ry="59.3"/>
	
		<path id="path4804-0-9-7_1_" inkscape:flatsided="true" inkscape:randomized="0" inkscape:rounded="0" inkscape:transform-center-x="1.2990532" inkscape:transform-center-y="12.135937" sodipodi:arg1="-0.62024949" sodipodi:arg2="0.42694807" sodipodi:cx="301.77887" sodipodi:cy="1517.5861" sodipodi:r1="36.867107" sodipodi:r2="18.433554" sodipodi:sides="3" sodipodi:type="star" class="st0" d="
		M92.7,199.6l-15,73l-21.1-65.3L92.7,199.6z"/>
	
		<ellipse id="path4580-0-3_1_" transform="matrix(9.931497e-02 -0.9951 0.9951 9.931497e-02 -87.7942 278.0789)" class="st0" cx="109.7" cy="187.5" rx="50.8" ry="87.8"/>
	
		<ellipse id="path4642-3_1_" transform="matrix(0.4272 -0.9042 0.9042 0.4272 -111.7313 156.9438)" class="st0" cx="68" cy="166.7" rx="29.3" ry="16.7"/>
	<ellipse id="path4642-1_1_" class="st0" cx="320.8" cy="96.7" rx="35" ry="37.3"/>
	<ellipse id="path4642-1-4_1_" class="st0" cx="321.6" cy="145.8" rx="35" ry="37.3"/>
	<ellipse id="path4785_1_" class="st0" cx="358.9" cy="119.2" rx="22.8" ry="29.9"/>
	
		<ellipse id="path4642-3-2_1_" transform="matrix(6.116508e-02 -0.9981 0.9981 6.116508e-02 -130.6266 183.812)" class="st0" cx="32.4" cy="161.3" rx="22.5" ry="9"/>
	<ellipse id="path4884_1_" class="st0" cx="243.2" cy="31.2" rx="48.4" ry="32.2"/>
	<ellipse id="path4961_1_" class="st0" cx="299.9" cy="124.3" rx="17.2" ry="37.3"/>
	
		<path id="path4804-5-1_1_" inkscape:flatsided="true" inkscape:randomized="0" inkscape:rounded="0" inkscape:transform-center-x="1.4102121" inkscape:transform-center-y="-8.0459462" sodipodi:arg1="-0.62024949" sodipodi:arg2="0.42694807" sodipodi:cx="338.92169" sodipodi:cy="1526.1575" sodipodi:r1="36.867107" sodipodi:r2="18.433554" sodipodi:sides="3" sodipodi:type="star" class="st0" d="
		M152.1,307.6l10.4-40l3.8,41.8L152.1,307.6z"/>
	
		<path id="path4804-5-1-3_1_" inkscape:flatsided="true" inkscape:randomized="0" inkscape:rounded="0" inkscape:transform-center-x="-1.8222465" inkscape:transform-center-y="-6.8071302" sodipodi:arg1="-0.62024949" sodipodi:arg2="0.42694807" sodipodi:cx="338.92169" sodipodi:cy="1526.1575" sodipodi:r1="36.867107" sodipodi:r2="18.433554" sodipodi:sides="3" sodipodi:type="star" class="st0" d="
		M178.6,307l9.8-44.2l18.3,38.2L178.6,307z"/>
	
		<path id="path4804-5-1-3-0_1_" inkscape:flatsided="true" inkscape:randomized="0" inkscape:rounded="0" inkscape:transform-center-x="-3.9552388" inkscape:transform-center-y="-5.5274937" sodipodi:arg1="-0.62024949" sodipodi:arg2="0.42694807" sodipodi:cx="338.92169" sodipodi:cy="1526.1575" sodipodi:r1="36.867107" sodipodi:r2="18.433554" sodipodi:sides="3" sodipodi:type="star" class="st0" d="
		M219.9,296.5l4.3-45.1l22.8,35.6L219.9,296.5z"/>
	
		<path id="path4804-5-1-32_1_" inkscape:flatsided="true" inkscape:randomized="0" inkscape:rounded="0" inkscape:transform-center-x="-3.012894" inkscape:transform-center-y="-5.713259" sodipodi:arg1="-0.62024949" sodipodi:arg2="0.42694807" sodipodi:cx="338.92169" sodipodi:cy="1526.1575" sodipodi:r1="36.867107" sodipodi:r2="18.433554" sodipodi:sides="3" sodipodi:type="star" class="st0" d="
		M263.8,281.1l-3.5-40.1l21.1,33.6L263.8,281.1z"/>
</g>
<g id="layer1" transform="translate(-82.015368,-1299.5051)" inkscape:groupmode="layer" inkscape:label="Layer 1">
	<g id="flowRoot4272" transform="matrix(1.3492935,0,0,1.7009222,-84.443883,-217.97281)">
	</g>
	<g id="flowRoot4272-9" transform="matrix(1.3492935,0,0,1.7009222,-82.39813,-120.95499)">
	</g>
	<path id="path4544_2_" class="st1" d="M222.7,915.1"/>
	
		<ellipse id="path4580-0-8-01" transform="matrix(0.9534 -0.3016 0.3016 0.9534 -446.757 190.4686)" class="st2" cx="393.5" cy="1542.2" rx="131" ry="62.4"/>
	
		<ellipse id="path4580-0-8" transform="matrix(0.884 -0.4674 0.4674 0.884 -675.1571 349.6212)" class="st2" cx="367" cy="1535.4" rx="187.5" ry="52.9"/>
	
		<ellipse id="path4580-0-8-0-4" transform="matrix(0.9945 -0.105 0.105 0.9945 -167.3511 47.6958)" class="st2" cx="369.5" cy="1613.9" rx="125" ry="23.4"/>
	
		<ellipse id="path4580-0-8-0" transform="matrix(7.190227e-02 -0.9974 0.9974 7.190227e-02 -1387.5765 1754.9625)" class="st2" cx="249.2" cy="1623.1" rx="22.2" ry="45.3"/>
	
		<ellipse id="path4580-0-8-9" transform="matrix(0.9006 -0.4347 0.4347 0.9006 -631.9926 303.9935)" class="st3" cx="348.5" cy="1533.5" rx="147.4" ry="39.7"/>
	
		<ellipse id="path4580-0-8-0-4-6" transform="matrix(0.6323 -0.7747 0.7747 0.6323 -1038.4198 929.727)" class="st2" cx="460.3" cy="1558.8" rx="71.8" ry="56.3"/>
	
		<path id="path4804-1" inkscape:flatsided="true" inkscape:randomized="0" inkscape:rounded="0" inkscape:transform-center-x="1.2190895" inkscape:transform-center-y="7.6332382" sodipodi:arg1="-0.62024949" sodipodi:arg2="0.42694807" sodipodi:cx="371.77887" sodipodi:cy="1526.1575" sodipodi:r1="36.867107" sodipodi:r2="18.433554" sodipodi:sides="3" sodipodi:type="star" class="st4" d="
		M220.4,1534.6l-13.2,42.3l-18.5-37.8L220.4,1534.6z"/>
	
		<path id="path4804-0-9" inkscape:flatsided="true" inkscape:randomized="0" inkscape:rounded="0" inkscape:transform-center-x="1.2990532" inkscape:transform-center-y="12.135937" sodipodi:arg1="-0.62024949" sodipodi:arg2="0.42694807" sodipodi:cx="301.77887" sodipodi:cy="1517.5861" sodipodi:r1="36.867107" sodipodi:r2="18.433554" sodipodi:sides="3" sodipodi:type="star" class="st4" d="
		M158.5,1493.6l-14.1,67.2l-19.7-60.1L158.5,1493.6z"/>
	
		<ellipse id="path4580-0-8-9-1" transform="matrix(0.9203 -0.3912 0.3912 0.9203 -578.1632 254.4886)" class="st5" cx="335.6" cy="1546.5" rx="123.8" ry="31"/>
	
		<path id="path4804" inkscape:flatsided="true" inkscape:randomized="0" inkscape:rounded="0" inkscape:transform-center-x="1.7788436" inkscape:transform-center-y="7.6332382" sodipodi:arg1="-0.62024949" sodipodi:arg2="0.42694807" sodipodi:cx="324.85715" sodipodi:cy="1577.7908" sodipodi:r1="36.867107" sodipodi:r2="18.433554" sodipodi:sides="3" sodipodi:type="star" class="st4" d="
		M302.7,1504.6l-19.2,42.3l-27-37.8L302.7,1504.6z"/>
	
		<path id="path4804-0-9-7-4" inkscape:flatsided="true" inkscape:randomized="0" inkscape:rounded="0" inkscape:transform-center-x="1.2990532" inkscape:transform-center-y="12.135937" sodipodi:arg1="-0.62024949" sodipodi:arg2="0.42694807" sodipodi:cx="301.77887" sodipodi:cy="1517.5861" sodipodi:r1="36.867107" sodipodi:r2="18.433554" sodipodi:sides="3" sodipodi:type="star" class="st4" d="
		M268.4,1498l-14.1,67.2l-19.7-60.1L268.4,1498z"/>
	
		<path id="path4804-5" inkscape:flatsided="true" inkscape:randomized="0" inkscape:rounded="0" inkscape:transform-center-x="1.0191707" inkscape:transform-center-y="7.2580232" sodipodi:arg1="-0.62024949" sodipodi:arg2="0.42694807" sodipodi:cx="338.92169" sodipodi:cy="1526.1575" sodipodi:r1="36.867107" sodipodi:r2="18.433554" sodipodi:sides="3" sodipodi:type="star" class="st4" d="
		M320.2,1514.4l-11,40.2l-15.5-36L320.2,1514.4z"/>
	
		<path id="path4804-2" inkscape:flatsided="true" inkscape:randomized="0" inkscape:rounded="0" inkscape:transform-center-x="1.7788436" inkscape:transform-center-y="7.6332382" sodipodi:arg1="-0.62024949" sodipodi:arg2="0.42694807" sodipodi:cx="426.06451" sodipodi:cy="1581.3005" sodipodi:r1="36.867107" sodipodi:r2="18.433554" sodipodi:sides="3" sodipodi:type="star" class="st4" d="
		M376.3,1507.1l-19.2,42.3l-27-37.8L376.3,1507.1z"/>
	<ellipse id="path4580" class="st2" cx="382.8" cy="1429.6" rx="165.8" ry="104.5"/>
	
		<path id="path4804-0" inkscape:flatsided="true" inkscape:randomized="0" inkscape:rounded="0" inkscape:transform-center-x="1.2990487" inkscape:transform-center-y="12.135937" sodipodi:arg1="-0.62024949" sodipodi:arg2="0.42694807" sodipodi:cx="301.77887" sodipodi:cy="1517.5861" sodipodi:r1="36.867107" sodipodi:r2="18.433554" sodipodi:sides="3" sodipodi:type="star" class="st4" d="
		M241.2,1515.9l-14.1,67.2l-19.7-60.1L241.2,1515.9z"/>
	
		<ellipse id="path4580-0" transform="matrix(0.9528 -0.3035 0.3035 0.9528 -429.4371 139.7034)" class="st2" cx="234.7" cy="1451.2" rx="135.1" ry="71.6"/>
	<ellipse id="path4642" class="st6" cx="389.6" cy="1429.4" rx="34.3" ry="54.6"/>
	
		<path id="path4804-0-9-7" inkscape:flatsided="true" inkscape:randomized="0" inkscape:rounded="0" inkscape:transform-center-x="1.2990532" inkscape:transform-center-y="12.135937" sodipodi:arg1="-0.62024949" sodipodi:arg2="0.42694807" sodipodi:cx="301.77887" sodipodi:cy="1517.5861" sodipodi:r1="36.867107" sodipodi:r2="18.433554" sodipodi:sides="3" sodipodi:type="star" class="st4" d="
		M182.9,1502.3l-14.1,67.2l-19.7-60.1L182.9,1502.3z"/>
	
		<ellipse id="path4580-0-3" transform="matrix(9.647182e-02 -0.9953 0.9953 9.647182e-02 -1304.6836 1545.283)" class="st2" cx="198.8" cy="1491.3" rx="46.8" ry="82"/>
	
		<ellipse id="path4642-3" transform="matrix(0.4374 -0.8992 0.8992 0.4374 -1233.8097 971.8176)" class="st6" cx="159.8" cy="1472" rx="27" ry="15.6"/>
	<ellipse id="path4642-1" class="st5" cx="396.1" cy="1407.6" rx="32.7" ry="34.3"/>
	<ellipse id="path4642-1-4" class="st5" cx="396.8" cy="1452.8" rx="32.7" ry="34.3"/>
	<ellipse id="path4785" class="st2" cx="431.7" cy="1428.4" rx="21.3" ry="27.5"/>
	
		<ellipse id="path4642-3-2" transform="matrix(6.242743e-02 -0.998 0.998 6.242743e-02 -1345.631 1501.8706)" class="st6" cx="126.6" cy="1467.1" rx="20.7" ry="8.4"/>
	<ellipse id="path4884" class="st2" cx="323.6" cy="1347.3" rx="45.2" ry="29.6"/>
	<ellipse id="path4961" class="st7" cx="376.6" cy="1433.1" rx="16.1" ry="34.3"/>
	
		<path id="path4804-5-1" inkscape:flatsided="true" inkscape:randomized="0" inkscape:rounded="0" inkscape:transform-center-x="1.4102121" inkscape:transform-center-y="-8.0459462" sodipodi:arg1="-0.62024949" sodipodi:arg2="0.42694807" sodipodi:cx="338.92169" sodipodi:cy="1526.1575" sodipodi:r1="36.867107" sodipodi:r2="18.433554" sodipodi:sides="3" sodipodi:type="star" class="st4" d="
		M238.5,1601.9l9.7-36.8l3.6,38.5L238.5,1601.9z"/>
	
		<path id="path4804-5-1-3" inkscape:flatsided="true" inkscape:randomized="0" inkscape:rounded="0" inkscape:transform-center-x="-1.8222465" inkscape:transform-center-y="-6.8071302" sodipodi:arg1="-0.62024949" sodipodi:arg2="0.42694807" sodipodi:cx="338.92169" sodipodi:cy="1526.1575" sodipodi:r1="36.867107" sodipodi:r2="18.433554" sodipodi:sides="3" sodipodi:type="star" class="st4" d="
		M263.2,1601.3l9.2-40.7l17.1,35.2L263.2,1601.3z"/>
	
		<path id="path4804-5-1-3-0" inkscape:flatsided="true" inkscape:randomized="0" inkscape:rounded="0" inkscape:transform-center-x="-3.9552388" inkscape:transform-center-y="-5.5274937" sodipodi:arg1="-0.62024949" sodipodi:arg2="0.42694807" sodipodi:cx="338.92169" sodipodi:cy="1526.1575" sodipodi:r1="36.867107" sodipodi:r2="18.433554" sodipodi:sides="3" sodipodi:type="star" class="st4" d="
		M301.8,1591.6l4.1-41.5l21.3,32.8L301.8,1591.6z"/>
	
		<path id="path4804-5-1-32" inkscape:flatsided="true" inkscape:randomized="0" inkscape:rounded="0" inkscape:transform-center-x="-3.012894" inkscape:transform-center-y="-5.713259" sodipodi:arg1="-0.62024949" sodipodi:arg2="0.42694807" sodipodi:cx="338.92169" sodipodi:cy="1526.1575" sodipodi:r1="36.867107" sodipodi:r2="18.433554" sodipodi:sides="3" sodipodi:type="star" class="st4" d="
		M342.8,1577.4l-3.3-36.9l19.7,30.9L342.8,1577.4z"/>
</g>
</svg>
