<?xml version="1.0" encoding="utf-8"?>
<!-- Generator: Adobe Illustrator 22.0.1, SVG Export Plug-In . SVG Version: 6.00 Build 0)  -->
<svg version="1.1" id="Layer_1" xmlns="http://www.w3.org/2000/svg" xmlns:xlink="http://www.w3.org/1999/xlink" x="0px" y="0px"
	 viewBox="0 0 249.9 249.9" style="enable-background:new 0 0 249.9 249.9;" xml:space="preserve">
<style type="text/css">
	.st0{display:none;fill:#FF8BFD;}
	.st1{fill:#FF8BFD;}
	.st2{fill:#C99999;}
	.st3{display:none;fill:#A3A3A3;}
	.st4{fill:#CEA5A5;}
	.st5{fill:#997A7A;}
	.st6{fill:#AE7676;}
	.st7{display:none;fill:#AE7676;}
	.st8{fill:#8E6262;}
</style>
<g id="svg2" xmlns:cc="http://creativecommons.org/ns#" xmlns:dc="http://purl.org/dc/elements/1.1/" xmlns:rdf="http://www.w3.org/1999/02/22-rdf-syntax-ns#" xmlns:svg="http://www.w3.org/2000/svg">
	<g id="layer1" transform="translate(-155.4696,-191.61838)">
		<path id="edr" class="st0" d="M188,259.6c9.2-9.3,23.2-21.3,42.5-31.5c22.5-12,41.8-16,52-18c10.9-2.2,30.5-5.1,54.5-3
			c24.8,2.2,32.9,8,35.5,10c9.4,7.3,13.2,16.6,17,26.5c2.1,5.4,7.5,20.6,7.5,54.5c0,23.9,0,35.9-4.5,51.5c-2.8,9.8-9.6,32.2-30,52.5
			c-4.7,4.7-19.7,18.7-44,27c-26.7,9.1-49.1,5.9-58.5,4.5c-10.9-1.7-33.3-5.4-55.5-22.5c-5.6-4.3-22.8-18.4-34-43.5
			c-12.2-27.3-10.1-51.4-9.5-57c1.6-14.8,6-26.4,9.5-34"/>
		<path id="path3336_1_" class="st1" d="M228.5,230.8c24.6,3.2,35.2-36.3,65.5-36.2c11.8,0,11.2,6.1,33.6,9.1
			c17.8,2.4,26.7-0.5,31.9,6.1c5.4,6.8-0.2,12.8,3.7,24.7c4.4,13.8,14.6,14.3,23,26.2c6.8,9.7,4.6,15.5,6.3,54.6
			c1.8,40.4,4.5,41,2.1,55.1c-2.3,13.3-5.5,32.1-19.4,46.2c-23.9,24.3-64.5,19.7-95,16.2c-23.5-2.7-22.8-8.3-52.3-12.5
			c-33.9-4.8-43,0.3-53.4-8.5c-9.1-7.7-10.1-27.2-12-66.1c-2.8-56.2,5.2-65.8,8.4-69.3c4.5-4.8,11.5-9.5,12-17.8
			c0.5-8.4-6-11.1-5.6-19.1c0.5-9.9,10.8-20.3,21.3-21.8C211.7,215.8,214.7,229,228.5,230.8z"/>
		<path id="path3336" class="st2" d="M231,235.1c23.5,3.1,33.6-34.6,62.5-34.5c11.3,0,10.7,5.8,32,8.7c17,2.3,25.5-0.4,30.5,5.8
			c5.1,6.5-0.2,12.2,3.5,23.5c4.2,13.1,13.9,13.6,22,25c6.5,9.2,4.3,14.8,6,52c1.7,38.5,4.3,39,2,52.5c-2.2,12.7-5.3,30.6-18.5,44
			c-22.8,23.2-61.6,18.8-90.7,15.5c-22.4-2.6-21.8-7.9-49.9-11.9c-32.4-4.6-41,0.2-50.9-8.1c-8.7-7.3-9.6-25.9-11.5-63
			c-2.7-53.6,4.9-62.7,8-66c4.3-4.6,11-9,11.5-17c0.5-8-5.7-10.6-5.4-18.2c0.4-9.4,10.3-19.3,20.4-20.8
			C214.9,220.8,217.8,233.4,231,235.1z"/>
	</g>
	<path class="st3" d="M145,137.5"/>
</g>
<path class="st4" d="M86.4,51.2c1-5.8,8-4.8,19.5-15.1c7.3-6.6,8.1-10.4,16.2-15.4c3-1.9,6.5-4,11.4-5.1c7.9-1.7,12,1,23.7,3.5
	c17.1,3.6,18-0.3,25.7,3.8c0.7,0.4,13.2,7.2,15.7,19.7c1.1,5.4-0.9,5.9,0,10.5c2.3,11.3,14.9,12,23,23.2c3.5,4.9,4.3,13.5,5.9,30.8
	c1,10.9,0.9,19.7,0.5,37.3c-0.4,23-1.4,26.6-4.4,30.1c-6,7.1-18.4,11.6-24.6,7.2c-10.3-7.4,8.4-32-2.2-61.6
	c-5.8-16.3-17.8-26.4-25.9-33.2c-10.8-9.1-23.2-19.6-40.3-20.5c-15.1-0.9-22.5,6.3-33.2,0.5C91.5,63.7,85.4,57,86.4,51.2z"/>
<path class="st5" d="M38.3,76.1C33.9,74.5,26,85,22.1,92c-2.2,3.9-7.1,13.8-6.2,50.5c0.2,10.1,1,23.8,4.1,40.5
	c4,21.6,8,27.2,12.2,30.5c7.7,6.2,17.3,6,22.7,5.9c48.7-0.2,80.8,18.9,84.1,11.4c2.5-5.7-13.3-21.5-31.1-25.2
	c-8.6-1.8-9.9,0.9-17.8-1c-17.4-4.1-27.6-20.7-33.5-30.3c-3-4.8-10.1-17.4-14.1-37.5C35.4,102.3,44.6,78.3,38.3,76.1z"/>
<g id="Layer_2_1_">
</g>
<path class="st6" d="M56.5,38.5c6.6,3.5,11.3,6,12,10.5c1.1,6.7-7.7,12.6-9,13.5c-2.2,1.5-10.1,6.8-18,3c-7.2-3.4-8.4-11.6-8.5-12
	c-0.1-0.8-1-7.6,4-13c0.8-0.9,4.7-4.9,10.5-5C50.7,35.4,53,36.6,56.5,38.5z"/>
<path class="st6" d="M159,21.5c-15.5-2.9-19.9-10.2-24-7.5c-5,3.2-4.1,17.6,3,26.5c6,7.5,14.8,9,23.5,10.5c8.6,1.5,18,3.1,26-2.5
	c7-4.9,12-14.8,9-20c-0.8-1.3-2.4-3-16.4-4.9C167.2,21.8,165.8,22.8,159,21.5z"/>
<path class="st6" d="M209.5,150.5c-4-4.1-16.8-17.1-36-16c-18,1-29.1,13.7-32.5,18c-15.7,20.1-7.9,44.2-7.5,45.5
	c1.3,3.9,6.5,18.2,21.5,26c17.5,9.1,34.8,2.5,39.5,0.5c15.5-6.7,30.3-22.8,30-42.5C224.2,165.5,213.4,154.4,209.5,150.5z"/>
<path class="st7" d="M35.3,103.7c3.5,5.6,10.8,3,32.5,7c15.6,2.9,21.6,6,23,3.8c2.1-3.4-9.3-14.4-18.5-21
	c-10.2-7.4-22.1-16-30.6-11.1C34.9,86.2,31.5,97.6,35.3,103.7z"/>
<path class="st7" d="M130.3,115.4c19.9-10.8,24.8-12.6,28.5-19.5c0.6-1.1,5.3-10,1.9-14.4c-4.2-5.3-18.4-1.2-26.7,3.3
	c-13.4,7.3-18.7,19.7-21.8,27c-1.9,4.5-4.4,10.3-2.3,12.2C111.9,125.9,116.7,122.8,130.3,115.4z"/>
<path class="st6" d="M-179-61"/>
<path class="st6" d="M-70-40"/>
<path class="st8" d="M152.5,151.5c-0.9-0.7-9.6,5.5-14,16c-3.3,7.9-2.8,14.9-2.5,18.5c0.4,4.6,1.6,19.9,14.5,30.5
	c1.8,1.5,13.8,11.1,28.5,8.5c9.4-1.7,17-7.8,16.5-9c-0.4-0.9-5.4,1.6-13,2c-3,0.2-17,0.9-27-8.5c-7.4-7-8.9-16.1-10.5-25.5
	c-0.7-4.3-1.4-8.5-0.5-14C146.3,158.6,153.3,152.2,152.5,151.5z"/>
<path class="st8" d="M123.8,95.5c-2.8,2.8-5.7,6.8-8.8,14.8c-2.7,6.9-4,10.3-2.8,11.3c1.9,1.7,7-3.8,20.8-10c6.3-2.8,11.2-4.3,11-6
	c-0.1-1.1-2.5-1.9-4.6-2c-5-0.1-6.3,4.7-12.8,6.5c-1.3,0.4-5.7,1.6-7-0.2c-2.8-3.5,9.2-16.7,8.2-17.5
	C127.4,92.2,125.3,94,123.8,95.5z"/>
<path class="st8" d="M40,85.7c-0.7-0.2-2.9,4.6-3.3,9.8c-0.2,2.4-0.3,4.2,0.7,6c1.4,2.6,4.1,3.4,7,4.3c5,1.6,7,0.7,15.7,1.7
	c4,0.5,6.1,0.9,6.2,0.7c0.1-0.4-5.7-2.7-12.2-4.2c-1.9-0.4-4.2-1.2-8.8-2.7c-1.5-0.5-3.3-1.1-4.2-2.7c-0.7-1.2-0.6-2.4-0.5-3.7
	C40.7,92.2,40.8,85.9,40,85.7z"/>
<path class="st8" d="M40.5,40c-0.5-0.2-4.2,3.7-4.7,9c-0.3,3.5,1,6.3,1.7,7.7c0.9,1.8,2,4.2,4.7,5.8c3,1.8,6,1.6,6.8,1.5
	c5.1-0.5,8.8-4.4,8.5-5c-0.2-0.4-2.9,1.3-8,1.7c-2.2,0.1-4.1,0.2-6-0.8c-2.2-1.2-3.2-3.3-3.7-4.3c-1.4-3-1.2-5.9-1-8.2
	C39.3,42.7,40.9,40.2,40.5,40z"/>
<path class="st8" d="M136,15.2c-0.6,0-1.7,5.2-1,10.8c0.3,2.8,1,7.7,4.7,12c2.2,2.6,4.5,3.6,8.8,5.7c5.5,2.6,10.1,3.5,14.8,4.5
	c6.6,1.3,10,2,13.8,1.3c1.8-0.3,7-1.3,11.3-5.5c3.9-3.8,5.9-8.9,5.2-9.5c-0.5-0.4-2.1,1.6-6,4.3c-2.3,1.6-6.5,4.5-11.7,5.8
	c-4.1,1-7.3,0.6-12.3,0c-3.3-0.4-8.6-1.1-14.5-4.2c-2.9-1.5-4.9-2.5-6.8-4.8c-2.2-2.6-2.9-5.3-4.2-10.3
	C136.5,18.8,136.5,15.2,136,15.2z"/>
</svg>
