<?xml version="1.0" encoding="utf-8"?>
<!-- Generator: Adobe Illustrator 22.0.1, SVG Export Plug-In . SVG Version: 6.00 Build 0)  -->
<svg version="1.1" xmlns="http://www.w3.org/2000/svg" xmlns:xlink="http://www.w3.org/1999/xlink" x="0px" y="0px"
	 viewBox="0 0 249.9 249.9" style="enable-background:new 0 0 249.9 249.9;" xml:space="preserve">
<style type="text/css">
	.st0{display:none;fill:#FF7BFF;}
	.st1{fill:#FF8BFD;}
	.st2{fill:#999999;}
	.st3{display:none;fill:#C87137;}
	.st4{display:none;fill:#FFCC00;}
	.st5{display:none;fill:#5B5B5B;}
	.st6{fill:#A3A3A3;}
	.st7{fill:#86807A;}
	.st8{fill:#8E8C88;}
	.st9{fill:#727272;}
	.st10{fill:#939393;}
	.st11{display:none;fill:#A3A3A3;}
	.st12{opacity:0.8;fill:#121403;}
	.st13{fill:#212121;}
	.st14{fill:#3F3F3F;}
	.st15{fill:#FFFFFF;}
	.st16{opacity:0.93;}
	.st17{display:none;fill:#161616;}
	.st18{fill:#121403;}
</style>
<g id="svg2" xmlns:cc="http://creativecommons.org/ns#" xmlns:dc="http://purl.org/dc/elements/1.1/" xmlns:rdf="http://www.w3.org/1999/02/22-rdf-syntax-ns#" xmlns:svg="http://www.w3.org/2000/svg">
	<g id="layer1" transform="translate(-155.4696,-191.61838)">
		<path id="path3336-7" class="st0" d="M307.5,203.6c69,0,97.9,43.9,97.9,112.9s-55.9,124.9-124.9,124.9s-142.9-58.3-124.9-124.9
			C176.2,239.6,238.5,203.6,307.5,203.6z"/>
		<path id="edr" class="st1" d="M188,259.6c9.2-9.3,23.2-21.3,42.5-31.5c22.5-12,41.8-16,52-18c10.9-2.2,30.5-5.1,54.5-3
			c24.8,2.2,32.9,8,35.5,10c9.4,7.3,13.2,16.6,17,26.5c2.1,5.4,7.5,20.6,7.5,54.5c0,23.9,0,35.9-4.5,51.5c-2.8,9.8-9.6,32.2-30,52.5
			c-4.7,4.7-19.7,18.7-44,27c-26.7,9.1-49.1,5.9-58.5,4.5c-10.9-1.7-33.3-5.4-55.5-22.5c-5.6-4.3-22.8-18.4-34-43.5
			c-12.2-27.3-10.1-51.4-9.5-57c1.6-14.8,6-26.4,9.5-34"/>
		<path id="path3336" class="st2" d="M323.8,212.4c61.9,0,68.5,41.4,68.5,103.2s-50.1,112-112,112s-112-50.1-112-112
			S261.9,212.4,323.8,212.4z"/>
		<path id="path4219" class="st3" d="M339.4,247.3l25.1,109.1L272,414.9l-82.3-73l41.7-103.6L339.4,247.3z"/>
		
			<rect id="rect3338-3-6" x="255.1" y="357.6" transform="matrix(0.7458 -0.6662 0.6662 0.7458 -182.4088 281.1237)" class="st4" width="44" height="44"/>
		<path id="path3392" class="st4" d="M312.8,336v-32.8v-32.8l28.4,16.4l28.4,16.4l-28.4,16.4L312.8,336z"/>
		<path id="path4213" class="st4" d="M277.2,306.9l-44.3,20.6l-33.3-35.8l23.8-42.8l48,9.4L277.2,306.9z"/>
		<path class="st5" d="M231.3,388.9c7.8,18,35.6,16.2,36.6,13.6c0.8-2.3-19.8-6-25.3-21.5c-4.9-13.7,5.3-27.4,3.8-28.1
			C244.5,352,223.5,370.8,231.3,388.9z"/>
	</g>
	<path class="st6" d="M187.5,102c-0.4,7.5-2.3,12.8-13.7,34c-19,35.4-28.8,52.7-36.3,60.4c-20,20.5-34.5,27.4-30.3,31
		c6.2,5.5,49.2-1.4,79.1-18.1c15.1-8.5,25-18.4,31.7-28.5c10.2-15.6,12.6-30.2,14.3-42.6c0.9-6.6,6-46.2-14.7-81.7
		c-7.6-13-14.6-18.6-19.4-21.6c-3.6-2.3-10.7-6.2-26.1-8.4c-26.3-3.7-52,1-52,4.5c0,2.7,15.1,0.7,33.1,11.5
		c3.8,2.3,13.3,8.5,21.4,20C177.5,66.8,188.5,82.3,187.5,102z"/>
	<path class="st7" d="M69,54c-5.9,2.8-39.9,19.9-47.5,54.5c-4,18.3,0.7,35.5,3.3,44.9c5.3,19.5,14.3,32,16.2,34.6
		c2.5,3.4,11.7,15.5,28,26c6.6,4.2,25.9,16.2,53,17c11.5,0.3,23.9,0.7,37-7c1.6-1,25.5-15.3,25-32.5c-1-30.4-77.5-34.9-81.5-69
		c-1.2-10.4,9.2-24.8,30-53.5c21-29,32.6-38,30-42.5C159.8,21.8,141.8,23.1,69,54z"/>
	<path class="st8" d="M174,59c-10.8-0.9-20.7,3.8-25.5,12c-0.9,1.6-5.3,9.4-2,18c3.4,9.1,13.9,14.9,24,13c10.5-2,16.4-11.7,17.5-20
		c1.5-10.9-5.4-18.8-6.5-20"/>
	<path class="st8" d="M162.5,153.5c0.3-2.8,1.6-11.7,9-19c1.5-1.5,11.2-10.7,25-8.5c1.7,0.3,15.8,2.8,21,16c5.5,13.9-4.6,26-5,26.5
		c-9.2,10.7-22.9,9.3-25,9c-9.8-1.2-16-7-18-9"/>
	<path class="st9" d="M192,129.5c-0.4-0.9-16.6-0.1-22.5,12c-3.3,6.7-1.5,13.2-1,15c2.5,8.8,10.3,15.3,19,17
		c15.1,2.9,26.5-10.1,26-11c-0.4-0.7-8,5.3-18,3.7c-1.8-0.3-10.2-1.9-15-9.7c-0.7-1.2-5.1-8.4-2.5-15.5
		C181.1,132.4,192.3,130.2,192,129.5z"/>
	<path class="st6" d="M76.3,140.2c10.7-2,16.4-14.1,16.7-22.9c0.4-16.1-17.1-33.6-31.5-31.3c-11.5,1.8-19.7,16-18.4,27.9
		c1.1,10.7,9.7,17.5,13.1,19.9C59.8,136.3,67.8,141.8,76.3,140.2z"/>
	<path class="st9" d="M165.5,62c-1.2,0.3-10.1,2.5-14,11c-0.8,1.8-2.7,6.7-1,12.5c2.3,7.8,9.2,10.9,10.5,11.5c1.5,0.7,4.4,1.9,8,1.5
		c4.2-0.5,8.3-3.1,8-4.5c-0.3-1.6-6,0.3-12-3c-1.2-0.6-6-3.3-7.5-9c-1.5-5.8,1.4-10.6,2-11.5"/>
	<path class="st10" d="M50.4,112.9c-0.1,12.2,10,20.6,18.5,22.9c1.7,0.4,11.1,2.9,16.9-3.5c0.7-0.7,3.3-3.6,2.7-5.6
		c-1.1-3.9-11.7,2.1-19.8-2.8c-10.2-6.2-8.6-25.3-12.8-25C53.4,99.1,50.5,106.5,50.4,112.9z"/>
	<path class="st11" d="M145,137.5"/>
	<path class="st6" d="M94.6,179.1c24.5-4.5,48.8,2.8,54.1,13.4c4.2,8.5-4.3,18.3-18,22.2c-20.7,5.9-47.7-3-56-13.9
		c-5.1-6.6-2.5-13-0.9-16"/>
	<path class="st12" d="M96.9,99c-2.3,1.6-2.8,6-3.6,14.6c-0.6,6.4-0.3,8.2,0,9.2c0.8,3.3,3.4,9.6,7.2,9.8c3.8,0.1,6.8-6.1,7.8-8.1
		c0.9-2,1.3-3.4,2.4-15.7c0.6-6.3,0.6-7.5-0.5-8.7C107.5,96.9,100.6,96.4,96.9,99z"/>
	<path class="st12" d="M134.9,101.4c-2.3,1.6-2.8,6-3.6,14.6c-0.6,6.4-0.3,8.2,0,9.2c0.8,3.3,3.4,9.6,7.2,9.8
		c3.8,0.1,6.8-6.1,7.8-8.1c0.9-2,1.3-3.4,2.4-15.7c0.6-6.3,0.6-7.5-0.5-8.7C145.6,99.3,138.6,98.7,134.9,101.4z"/>
	<path class="st13" d="M96.8,98.8c-1.9,1.5-2.3,5.5-3,13.5c-0.5,5.9-0.2,7.5,0,8.5c0.7,3.1,2.9,8.9,6,9c3.2,0.1,5.7-5.7,6.5-7.5
		c0.8-1.8,1.1-3.1,2-14.5c0.5-5.8,0.5-6.9-0.4-8.1C105.7,96.8,99.8,96.3,96.8,98.8z"/>
	<path class="st13" d="M134.3,101.3c-1.9,1.5-2.3,5.5-3,13.5c-0.5,5.9-0.2,7.5,0,8.5c0.7,3.1,2.9,8.9,6,9c3.2,0.1,5.7-5.7,6.5-7.5
		c0.8-1.8,1.1-3.1,2-14.5c0.5-5.8,0.5-6.9-0.4-8.1C143.2,99.3,137.4,98.8,134.3,101.3z"/>
	<path class="st14" d="M99.1,100.8c1.2-0.2,2.3,1.1,2.4,1.3c3.2,3.7-3,10.3-1,17c0.1,0.2,0.7,2.4,0.5,5.2c-0.1,1-0.3,2.5-1.1,2.8
		c-0.9,0.4-2.3-1.1-2.7-1.5C92.5,120.5,94.5,101.4,99.1,100.8z"/>
	<path class="st14" d="M137.4,102.8c1.2-0.2,2.3,1.1,2.4,1.3c3.2,3.7-3,10.3-1,17c0.1,0.2,0.7,2.4,0.5,5.2c-0.1,1-0.3,2.5-1.1,2.8
		c-0.9,0.4-2.3-1.1-2.7-1.5C130.8,122.5,132.8,103.4,137.4,102.8z"/>
	<path class="st15" d="M97,107.3c-1.3-0.9-1.2-4.7,1-6.5c2.1-1.7,5-0.7,5.5-0.5c0.7,0.2,2.4,0.8,3.3,2.5c1.1,2.1,0.6,5.2-0.8,5.8
		c-1.2,0.5-2.1-1.5-4.8-1.8C98.9,106.6,98,108,97,107.3z"/>
	<path class="st15" d="M134.8,109.7c-1.3-0.9-1.2-4.7,1-6.5c2.1-1.7,5-0.7,5.5-0.5c0.7,0.2,2.4,0.8,3.3,2.5c1.1,2.1,0.6,5.2-0.8,5.8
		c-1.2,0.5-2.1-1.5-4.8-1.8C136.7,109,135.7,110.4,134.8,109.7z"/>
	<path class="st16" d="M99.3,161.1c-2.9-4.5-5.6-10.5-5.3-11.4c0.5-1.3,6.4,11.8,16,16.4c4.4,2.1,12.5,3.1,17.1-0.7
		c2.4-2,3.7-5.2,6.1-5c1.9,0.2,2.6,2.3,4.8,2.2c1.7-0.1,2.4-1.4,3.8-1c1.2,0.3,1.3,1.5,2.2,2c2.8,1.4,10.1-5,9-7.8
		c-0.8-2.1-5.9-1.6-6.3-3.8c0-0.1-0.1-0.8,0.3-1.2c1.3-1.2,6.2,2,9.1,4.3c1.8,1.5,4.6,3.8,4,5.7c-0.2,0.5-0.6,1.1-1.2,1.2
		c-1.4,0.1-1.8-3.9-3.3-4c-1.2-0.1-1.5,2.4-3.9,4.5c-1.8,1.6-5.2,3.3-8.1,2.5c-1.3-0.4-1.4-1.2-2.9-1.4c-1.9-0.3-2.6,0.7-4.1,0.2
		c-1.5-0.5-1.5-1.9-2.5-2c-1.5-0.2-2.5,2.8-4.8,5.7c-1,1.2-4.4,5.4-9.4,6.1c-3.9,0.5-8-1.4-9.3-2C108.2,170.4,103.8,168,99.3,161.1z
		"/>
	<path d="M98.3,160c-2.9-4.5-5.6-10.5-5.3-11.4c0.5-1.3,6.4,11.8,16,16.4c4.4,2.1,12.5,3.1,17.1-0.7c2.4-2,3.7-5.2,6.1-5
		c1.9,0.2,2.6,2.3,4.8,2.2c1.7-0.1,2.4-1.4,3.8-1c1.2,0.3,1.3,1.5,2.2,2c2.8,1.4,10.1-5,9-7.8c-0.8-2.1-5.9-1.6-6.3-3.8
		c0-0.1-0.1-0.8,0.3-1.2c1.3-1.2,6.2,2,9.1,4.3c1.8,1.5,4.6,3.8,4,5.7c-0.2,0.5-0.6,1.1-1.2,1.2c-1.4,0.1-1.8-3.9-3.3-4
		c-1.2-0.1-1.5,2.4-3.9,4.5c-1.8,1.6-5.2,3.3-8.1,2.5c-1.3-0.4-1.4-1.2-2.9-1.4c-1.9-0.3-2.6,0.7-4.1,0.2c-1.5-0.5-1.5-1.9-2.5-2
		c-1.5-0.2-2.5,2.8-4.8,5.7c-1,1.2-4.4,5.4-9.4,6.1c-3.9,0.5-8-1.4-9.3-2C107.2,169.3,102.8,167,98.3,160z"/>
	<path class="st17" d="M192,141c-0.1-4.2,12.4-8.7,23.2-9.4c6.9-0.4,12.4-0.8,17.5,2.5c10.9,7,10,24,9.3,36.6
		c-0.5,8.7-0.9,15.8-5.7,18c-5.3,2.5-13.9-2-14.3-6c-0.3-2.9,3.7-4.3,3.8-9c0-3.1-1.8-4.7-0.9-5.8c1.5-1.9,6.8,2,10.2-0.1
		c2.5-1.6,2.6-5.5,2.6-8.5c0.1-3.1,0.3-15.4-8-20.3c-5.2-3.1-11.3-1.7-14.7-1c-9.9,2.2-13.8,8.7-19.3,6.7
		C194.1,144.1,192.1,142.7,192,141z"/>
	<path class="st17" d="M22,129c-2.4-2.1-6.5-2-9.1-0.7c-6.5,3.1-7.2,13.9-8.2,27.7c-0.4,6.4-0.4,12.9,0.4,20.1
		c1.4,11.5,2.4,20.3,6.9,21.6c4.5,1.3,12.1-5.3,11.7-10.7c-0.4-5.1-7.9-5-11.6-12.7c-1.3-2.8-1-7.9-0.3-18c1-14.7,2.6-17.3,4.6-18.4
		c2.9-1.5,5.8,0.6,7.3-1.3C25.1,134.9,24.3,131,22,129z"/>
	<path class="st18" d="M-18.3,8"/>
</g>
<g id="Layer_2">
</g>
</svg>
