<?xml version="1.0" encoding="utf-8"?>
<!-- Generator: Adobe Illustrator 22.0.1, SVG Export Plug-In . SVG Version: 6.00 Build 0)  -->
<svg version="1.1" xmlns="http://www.w3.org/2000/svg" xmlns:xlink="http://www.w3.org/1999/xlink" x="0px" y="0px"
	 viewBox="0 0 249.9 249.9" style="enable-background:new 0 0 249.9 249.9;" xml:space="preserve">
<style type="text/css">
	.st0{display:none;fill:#FF7BFF;}
	.st1{display:none;fill:#FF8BFD;}
	.st2{fill:#FF8BFD;}
	.st3{fill:#9E997F;}
	.st4{fill:#A8A8A8;}
	.st5{display:none;fill:#A3A3A3;}
	.st6{display:none;fill:#161616;}
	.st7{display:none;}
	.st8{display:inline;opacity:0.8;fill:#121403;}
	.st9{display:inline;fill:#212121;}
	.st10{display:inline;fill:#3F3F3F;}
	.st11{display:inline;fill:#FFFFFF;}
	.st12{display:inline;opacity:0.93;}
	.st13{display:inline;}
	.st14{display:inline;fill:#121403;}
	.st15{fill:#7F7F7F;}
	.st16{fill:#636363;}
</style>
<g id="svg2" xmlns:cc="http://creativecommons.org/ns#" xmlns:dc="http://purl.org/dc/elements/1.1/" xmlns:rdf="http://www.w3.org/1999/02/22-rdf-syntax-ns#" xmlns:svg="http://www.w3.org/2000/svg">
	<g id="layer1" transform="translate(-155.4696,-191.61838)">
		<path id="path3336-7" class="st0" d="M307.5,203.6c69,0,97.9,43.9,97.9,112.9s-55.9,124.9-124.9,124.9s-142.9-58.3-124.9-124.9
			C176.2,239.6,238.5,203.6,307.5,203.6z"/>
		<path id="edr" class="st1" d="M188,259.6c9.2-9.3,23.2-21.3,42.5-31.5c22.5-12,41.8-16,52-18c10.9-2.2,30.5-5.1,54.5-3
			c24.8,2.2,32.9,8,35.5,10c9.4,7.3,13.2,16.6,17,26.5c2.1,5.4,7.5,20.6,7.5,54.5c0,23.9,0,35.9-4.5,51.5c-2.8,9.8-9.6,32.2-30,52.5
			c-4.7,4.7-19.7,18.7-44,27c-26.7,9.1-49.1,5.9-58.5,4.5c-10.9-1.7-33.3-5.4-55.5-22.5c-5.6-4.3-22.8-18.4-34-43.5
			c-11-24.5-10.4-46.6-9.5-57"/>
		<path id="path3336_1_" class="st2" d="M304.5,200.8c14.1,5.8,27.1,19.7,53.3,47.2c8.9,9.4,15.8,17.5,15.6,27.9
			c-0.2,9-5.5,11.7-6.7,24.3c-0.4,4.1-1.5,15.9,4.7,25c7.5,11.1,18.7,7.5,27,15c15.1,13.8,10.7,56.4-12.5,79.7
			c-20,20-47.7,19.3-74.4,18.8c-19.2-0.4-57.6-1.1-91.1-28.7c-30.3-25-40.2-58.5-48.5-86.3c-6.1-20.6-7.6-36.5-8.7-49
			c-2.8-32.5-4.7-54.7,8-67.6c4.6-4.7,10.6-7.7,49.5-9.5C266.2,195.5,288.9,194.4,304.5,200.8z"/>
		<path id="path3336" class="st3" d="M304.1,206.3c19.5,7.9,30.1,20.3,51.3,44.7c8.9,10.2,14.3,18.2,13.7,27.7
			c-0.6,9-6.1,10.8-7.7,21.7c-1.5,10.2,1.5,21.9,8,30c10,12.3,21.3,7.3,29,16.3c11.8,13.9,3.7,48-16,67
			c-19.8,19.1-46.6,18.3-71.6,17.8c-18.5-0.3-55.5-1-87.7-27.1c-29.1-23.6-38.7-55.3-46.7-81.7c-5.9-19.5-7.3-34.5-8.3-46.3
			c-2.7-30.8-4.6-51.7,7.7-64c4.4-4.4,10.2-7.3,47.7-9C267.2,201.2,289.1,200.2,304.1,206.3z"/>
	</g>
	<path class="st4" d="M95.7,17.7c-1.4,4.4,12.2,10.9,31.7,25.7c15.5,11.7,21.9,19,23.7,21c8.3,9.6,14.7,17.3,15,27.7
		c0.1,5.7-1.7,8-1.3,17.3c0.2,6.2,1.2,11.2,2.3,15.7c4.3,17.1,9.1,22.7,12.3,33.7c1.1,3.6,8.7,29.5-3.3,45
		c-10.1,12.9-27.8,10.6-28,16.3c-0.2,5.8,17.3,13.1,34,13c25.8-0.2,42.3-18.4,44-20.3c2.4-2.7,13.4-15.8,14.3-34.7
		c0.3-6.7,0.8-16.4-5.3-22c-6.6-6-13.4-0.5-23.3-6c-13.2-7.3-15.8-25.2-16-26.7c-0.8-6,0.6-12.4,3.3-25.3c2.5-11.7,3.7-12.7,4-16.7
		c1-14.2-12.8-26.1-25-36.3c-35.1-29.5-67.8-33-79-29.7C97.3,15.8,96,16.5,95.7,17.7z"/>
	<path class="st5" d="M145,137.5"/>
	<path class="st6" d="M192,141c-0.1-4.2,12.4-8.7,23.2-9.4c6.9-0.4,12.4-0.8,17.5,2.5c10.9,7,10,24,9.3,36.6
		c-0.5,8.7-0.9,15.8-5.7,18c-5.3,2.5-13.9-2-14.3-6c-0.3-2.9,3.7-4.3,3.8-9c0-3.1-1.8-4.7-0.9-5.8c1.5-1.9,6.8,2,10.2-0.1
		c2.5-1.6,2.6-5.5,2.6-8.5c0.1-3.1,0.3-15.4-8-20.3c-5.2-3.1-11.3-1.7-14.7-1c-9.9,2.2-13.8,8.7-19.3,6.7
		C194.1,144.1,192.1,142.7,192,141z"/>
	<path class="st6" d="M22,129c-2.4-2.1-6.5-2-9.1-0.7c-6.5,3.1-7.2,13.9-8.2,27.7c-0.4,6.4-0.4,12.9,0.4,20.1
		c1.4,11.5,2.4,20.3,6.9,21.6c4.5,1.3,12.1-5.3,11.7-10.7c-0.4-5.1-7.9-5-11.6-12.7c-1.3-2.8-1-7.9-0.3-18c1-14.7,2.6-17.3,4.6-18.4
		c2.9-1.5,5.8,0.6,7.3-1.3C25.1,134.9,24.3,131,22,129z"/>
	<g class="st7">
		<path class="st8" d="M96.9,99c-2.3,1.6-2.8,6-3.6,14.6c-0.6,6.4-0.3,8.2,0,9.2c0.8,3.3,3.4,9.6,7.2,9.8c3.8,0.1,6.8-6.1,7.8-8.1
			c0.9-2,1.3-3.4,2.4-15.7c0.6-6.3,0.6-7.5-0.5-8.7C107.5,96.9,100.6,96.4,96.9,99z"/>
		<path class="st8" d="M134.9,101.4c-2.3,1.6-2.8,6-3.6,14.6c-0.6,6.4-0.3,8.2,0,9.2c0.8,3.3,3.4,9.6,7.2,9.8
			c3.8,0.1,6.8-6.1,7.8-8.1c0.9-2,1.3-3.4,2.4-15.7c0.6-6.3,0.6-7.5-0.5-8.7C145.6,99.3,138.6,98.7,134.9,101.4z"/>
		<path class="st9" d="M96.8,98.8c-1.9,1.5-2.3,5.5-3,13.5c-0.5,5.9-0.2,7.5,0,8.5c0.7,3.1,2.9,8.9,6,9c3.2,0.1,5.7-5.7,6.5-7.5
			c0.8-1.8,1.1-3.1,2-14.5c0.5-5.8,0.5-6.9-0.4-8.1C105.7,96.8,99.8,96.3,96.8,98.8z"/>
		<path class="st9" d="M134.3,101.3c-1.9,1.5-2.3,5.5-3,13.5c-0.5,5.9-0.2,7.5,0,8.5c0.7,3.1,2.9,8.9,6,9c3.2,0.1,5.7-5.7,6.5-7.5
			c0.8-1.8,1.1-3.1,2-14.5c0.5-5.8,0.5-6.9-0.4-8.1C143.2,99.3,137.4,98.8,134.3,101.3z"/>
		<path class="st10" d="M99.1,100.8c1.2-0.2,2.3,1.1,2.4,1.3c3.2,3.7-3,10.3-1,17c0.1,0.2,0.7,2.4,0.5,5.2c-0.1,1-0.3,2.5-1.1,2.8
			c-0.9,0.4-2.3-1.1-2.7-1.5C92.5,120.5,94.5,101.4,99.1,100.8z"/>
		<path class="st10" d="M137.4,102.8c1.2-0.2,2.3,1.1,2.4,1.3c3.2,3.7-3,10.3-1,17c0.1,0.2,0.7,2.4,0.5,5.2c-0.1,1-0.3,2.5-1.1,2.8
			c-0.9,0.4-2.3-1.1-2.7-1.5C130.8,122.5,132.8,103.4,137.4,102.8z"/>
		<path class="st11" d="M97,107.3c-1.3-0.9-1.2-4.7,1-6.5c2.1-1.7,5-0.7,5.5-0.5c0.7,0.2,2.4,0.8,3.3,2.5c1.1,2.1,0.6,5.2-0.8,5.8
			c-1.2,0.5-2.1-1.5-4.8-1.8C98.9,106.6,98,108,97,107.3z"/>
		<path class="st11" d="M134.8,109.7c-1.3-0.9-1.2-4.7,1-6.5c2.1-1.7,5-0.7,5.5-0.5c0.7,0.2,2.4,0.8,3.3,2.5
			c1.1,2.1,0.6,5.2-0.8,5.8c-1.2,0.5-2.1-1.5-4.8-1.8C136.7,109,135.7,110.4,134.8,109.7z"/>
		<path class="st12" d="M99.3,161.1c-2.9-4.5-5.6-10.5-5.3-11.4c0.5-1.3,6.4,11.8,16,16.4c4.4,2.1,12.5,3.1,17.1-0.7
			c2.4-2,3.7-5.2,6.1-5c1.9,0.2,2.6,2.3,4.8,2.2c1.7-0.1,2.4-1.4,3.8-1c1.2,0.3,1.3,1.5,2.2,2c2.8,1.4,10.1-5,9-7.8
			c-0.8-2.1-5.9-1.6-6.3-3.8c0-0.1-0.1-0.8,0.3-1.2c1.3-1.2,6.2,2,9.1,4.3c1.8,1.5,4.6,3.8,4,5.7c-0.2,0.5-0.6,1.1-1.2,1.2
			c-1.4,0.1-1.8-3.9-3.3-4c-1.2-0.1-1.5,2.4-3.9,4.5c-1.8,1.6-5.2,3.3-8.1,2.5c-1.3-0.4-1.4-1.2-2.9-1.4c-1.9-0.3-2.6,0.7-4.1,0.2
			c-1.5-0.5-1.5-1.9-2.5-2c-1.5-0.2-2.5,2.8-4.8,5.7c-1,1.2-4.4,5.4-9.4,6.1c-3.9,0.5-8-1.4-9.3-2C108.2,170.4,103.8,168,99.3,161.1
			z"/>
		<path class="st13" d="M98.3,160c-2.9-4.5-5.6-10.5-5.3-11.4c0.5-1.3,6.4,11.8,16,16.4c4.4,2.1,12.5,3.1,17.1-0.7
			c2.4-2,3.7-5.2,6.1-5c1.9,0.2,2.6,2.3,4.8,2.2c1.7-0.1,2.4-1.4,3.8-1c1.2,0.3,1.3,1.5,2.2,2c2.8,1.4,10.1-5,9-7.8
			c-0.8-2.1-5.9-1.6-6.3-3.8c0-0.1-0.1-0.8,0.3-1.2c1.3-1.2,6.2,2,9.1,4.3c1.8,1.5,4.6,3.8,4,5.7c-0.2,0.5-0.6,1.1-1.2,1.2
			c-1.4,0.1-1.8-3.9-3.3-4c-1.2-0.1-1.5,2.4-3.9,4.5c-1.8,1.6-5.2,3.3-8.1,2.5c-1.3-0.4-1.4-1.2-2.9-1.4c-1.9-0.3-2.6,0.7-4.1,0.2
			c-1.5-0.5-1.5-1.9-2.5-2c-1.5-0.2-2.5,2.8-4.8,5.7c-1,1.2-4.4,5.4-9.4,6.1c-3.9,0.5-8-1.4-9.3-2C107.2,169.3,102.8,167,98.3,160z"
			/>
		<path class="st14" d="M-18.3,8"/>
	</g>
	<path class="st15" d="M75,51.9c2.5-4.7,7.8-13.3,17.4-20c14.7-10.1,29.6-9,34.5-8.6c4.9,0.4,22.8,2.3,36.5,18.2
		c3.4,4,14.3,16.6,13.6,34.4c-0.9,23.2-20.7,36.5-25.2,39.6c-23.3,15.7-48.6,7.4-54.2,5.5c-8.6-2.8-22.4-7.4-30-22
		c-6-11.5-4.9-23.1-4.2-28.2"/>
	<path class="st16" d="M109.6,30.7c-1.6,0.4-6.7,1.8-13.2,5.9C88.2,41.9,83.3,48.2,80.4,52c-3.3,4.3-6.6,8.6-9.1,15.4
		c-1.2,3.3-3,8.2-2.9,14.8c0,1.8,0.2,7,2.3,12.8c5.1,13.5,17.6,20.6,27.8,22c4.2,0.6,8.8,0.3,9.1-1c0.3-1.9-10.3-3.7-20.2-13.8
		c-3.2-3.2-6.3-6.5-7.3-11.8c-1-5.5,1-10.1,3.4-15.5c1.2-2.8,3.4-7,17.3-24.2c6.8-8.3,8.3-9.9,10.2-11.5c6.7-5.6,12-7.3,11.7-8.7
		C122.4,28.9,115.3,29.3,109.6,30.7z"/>
	<path class="st4" d="M-73.7,51.3"/>
	<path class="st15" d="M99.5,178.5c-11.9-11.6-15.2-8.2-26.5-19.2c-12.8-12.4-18.1-26.2-21.7-35.3C48,115.5,41,96.6,43.7,72.3
		c1-8.6,2.2-19.9,9.3-32c7.8-13.2,16.5-16.9,15-20.7c-2.4-6.3-31.7-8.5-46,6.3c-14.1,14.5-9,40.2-2,75.7c4.2,21.3,9.9,36.4,12,41.7
		c7.6,19.4,15.8,40.2,33.7,58c29.1,29,71.5,37.6,74.7,32c1.2-2.1-4-5.1-16.3-21C109,193,110,188.8,99.5,178.5z"/>
	<path class="st15" d="M209.7,84c-1.7-1.3-9.7,5.1-15,12c-2.3,3-7.7,10.2-9.3,21.3c-2.2,15.3,4.4,26.9,6.7,30.7
		c3.8,6.3,9.1,15.8,20.3,19c9.7,2.8,18.1-0.6,20.7-1.7c2.6-1,9.2-3.8,9-6.7c-0.3-3.2-8.6-2.9-19.7-8.7c-5.6-2.9-13.1-6.8-17.3-14.7
		c-5.3-9.9-2.9-21.3-2-25.3c1.9-9,5-18.3,5-18.3C209.6,86.9,210.5,84.6,209.7,84z"/>
	<path class="st15" d="M-65.3,117.7"/>
</g>
<g id="Layer_2">
</g>
</svg>
