<?xml version="1.0" encoding="utf-8"?>
<!-- Generator: Adobe Illustrator 22.0.1, SVG Export Plug-In . SVG Version: 6.00 Build 0)  -->
<svg version="1.1" id="Layer_2" xmlns="http://www.w3.org/2000/svg" xmlns:xlink="http://www.w3.org/1999/xlink" x="0px" y="0px"
	 viewBox="0 0 1920 1080" style="enable-background:new 0 0 1920 1080;" xml:space="preserve">
<style type="text/css">
	.st0{fill:#FB17FF;}
	.st1{fill:#FFFFFF;}
	.st2{fill:#0F0F0F;}
	.st3{fill:#232323;}
	.st4{fill:#111111;}
	.st5{fill:#3A3A3A;}
	.st6{fill:#333333;}
	.st7{fill:#D00B00;}
	.st8{fill:#1E1E1E;}
	.st9{fill:#B20602;}
	.st10{fill:#C93835;}
	.st11{fill:#E2D9D9;}
	.st12{fill:#878787;}
	.st13{fill:#BFBFBF;}
	.st14{fill:#161616;}
</style>
<g>
	<path class="st0" d="M368.3,616.2c16.7-41.9,179.9-22,278.6,0c61.9,13.8,77.3,23.7,104.6,13c65.9-25.8,53.8-114.3,119.1-167.3
		c58.4-47.4,137.7-33.3,215.4-19.6c137.2,24.3,135.8,87.5,293.1,128.2c17.4,4.5,47,11.4,68.4,38c33.5,41.8,34.6,116.6,3.1,148.9
		c-34.3,35.3-98.8,10.9-158.5-1.1c-107.4-21.6-123.3,11.9-554.1,106.5c-194.3,42.6-287.2,56.9-315.9,10.9
		c-25-40.2,13.9-102.2-26.9-196.7C379.1,639.7,362.6,630.4,368.3,616.2z"/>
	<path class="st0" d="M151.8,705.3c14.1,14.1,26.9,14.6,46.6,22.8c14.6,6.1,30.2,12.6,43.5,27.2c5.2,5.7,25.1,27.4,20.7,55.4
		c-0.9,5.6-2.9,18.6-12.4,26.1c-23.5,18.3-78.8-7.8-91.1-44.6c-3.2-9.4,0-8.9-3.1-31.5c-5.4-38.6-18-63.3-14.5-65.2
		C143.1,694.7,146.1,699.6,151.8,705.3z"/>
	<path class="st0" d="M549.6,531.4c17.8-18.7,38.7-23.3,51.8-27.2c64.6-19.3,59-58.2,123.3-75c28.9-7.5,60.4-7.6,68.4-7.6
		c3.1,0,17,1.1,44.5,3.3c46.8,3.7,57.4,4.8,68.4,14.1c3.7,3.1,14.1,12,16.6,26.1c2.4,13.6-5.6,28.4-21.8,57.6
		c-9.7,17.5-11.1,17.3-16.6,29.3c-9.4,20.7-7.6,26.6-14.5,31.5c-9.2,6.5-18.9,0.5-45.6-3.3c-3.8-0.5-15.7-1.1-39.4-2.2
		c-35.6-1.6-69-0.4-108.8,1.1c-4.1,0.2-45.1,1.7-98.4-1.1c-22.3-1.2-39.5-2.7-43.5-13C529.3,552.8,546.3,534.9,549.6,531.4z"/>
	<path class="st0" d="M911,569.5c15-10.3,30.8-2.3,54.9,0c7.6,0.7,25.4-1.7,61.1-6.5c46-6.2,51.4-9.4,55.9-13
		c15-12.2,23.1-32.9,22.8-52.2c-0.1-6.3-0.3-20.6-9.3-32.6c-9.2-12.3-24.2-15.3-53.9-20.6c-18.7-3.4-39.1-7-66.3-5.4
		c-26.7,1.5-48.7,6.5-48.7,6.5c-14.7,3.3-22.8,6.5-24.9,3.3c-2.9-4.5,7.6-19.5,20.7-28.3c11-7.4,21.6-9,49.7-9.8
		c35.2-1,52.9-1.5,71.5,1.1c18.7,2.6,33.6,7.2,63.2,16.3c32.3,9.9,45,16.1,44.5,20.6c-0.7,5.9-23.2,3.6-29,17.4
		c-1.9,4.6-0.9,8.4,0,15.2c0.3,2.3,3.4,25.7,0,42.4c-5.9,29-33,44.4-35.2,45.6c-10.3,5.7-15.4,4.8-53.9,7.6
		c-35.2,2.6-28.6,3.1-64.2,5.4c-57.7,3.7-66.3,1.7-67.3-2.2C901.6,576,910.1,570.1,911,569.5z"/>
	<path class="st0" d="M542.3,534.7c-0.2-0.3,156.8-97.2,191.1-99.6c13-0.9,27.5-1.4,27.5-1.4c23.2-0.8,36.9-0.5,55.9,0
		c46.9,1.2,64.4,4.6,73.9,16.3c1.5,1.9,6.1,7.5,6.3,15.2c0.3,10.1-6.9,17.8-9.5,20.6c-8.7,9.5-68.8,75.4-59.1,95.6
		c4.7,9.7,26.7,11.5,39,3.3c5.7-3.8,7.3-8.4,13.7-21.7l0,0c10.2-19.6,16.3-31.4,23.2-43.5c6.9-11.9,9.6-15.4,14.8-26.1
		c3.8-7.7,5.4-12.1,6.3-17.4c0.5-2.8,2.5-13.1-1.1-21.7c-5.1-12.3-17.9-17.6-26.4-20.6c-50.6-18.3-96-16.3-96-16.3h0
		c-58.8,0-78.9,2.8-132.4,31.5C590.2,491.6,542.4,534.9,542.3,534.7z"/>
	<path class="st0" d="M1265.5,733.6c-17-67.7,49.8-147.5,118-139.6c43.4,5,84.4,45.1,89.3,95.3c5.9,61.5-44.2,117.5-102,120.4
		C1323.2,812.1,1276.7,778.5,1265.5,733.6z"/>
	<path class="st0" d="M1296.4,729.3c-13.9-61.8,40.9-134.5,97-127.4c35.7,4.5,69.4,41.1,73.4,86.9c4.9,56-36.3,107.1-83.9,109.8
		C1343.9,800.9,1305.6,770.2,1296.4,729.3z"/>
	<path class="st0" d="M1309.9,731.5c-13.4-57.6,39.2-125.4,93-118.7c34.2,4.2,66.5,38.3,70.3,81c4.7,52.2-34.8,99.9-80.4,102.4
		C1355.3,798.2,1318.7,769.6,1309.9,731.5z"/>
	<path class="st0" d="M1390.6,689.2c-8.4,2.7-13,11.5-13.6,19.2c-0.5,7.1,2.1,15.4,8.8,20.1c8.6,6,21.5,4.3,27.9-5
		c7.3-10.6,1.7-24.8-6.4-30.9C1406.4,691.8,1399.2,686.5,1390.6,689.2z"/>
	<path class="st0" d="M1390.6,699.3c-3.9-17.1-24.1-15-42.2-36c-15.6-18-12.9-33.7-22.3-35.1c-11.8-1.8-29.4,20.6-25.5,36
		c1.7,6.9,12.1,12.7,32.7,24.3c20.1,11.3,19.9,8.7,31.9,16.7c11.6,7.8,17.1,13.9,21.5,11.7C1390.8,714.7,1392.2,706.2,1390.6,699.3z
		"/>
	<path class="st0" d="M1405,721.5c15.3-7.6,9.2-24.8,25.1-45.8c13.7-18.1,29.1-19.5,28.5-28.1c-0.8-10.7-25.4-20.7-39.1-13.5
		c-6.1,3.2-9.5,13.6-16.1,34.5c-6.5,20.4-4,19.6-9.2,32c-5,12.1-9.6,18.4-6.6,21.7C1390.5,725.4,1398.8,724.6,1405,721.5z"/>
	<path class="st0" d="M1395.4,724.4c4,8.1,10.8,6.4,22.3,15.1c16.6,12.5,16.6,26.9,25.2,27c8,0.1,17.7-12.3,16.2-22
		c-1.5-10.2-14.1-9.6-35.9-27.6c-14.4-11.8-18.5-20-23.5-18.1C1393.9,700.9,1390.8,715,1395.4,724.4z"/>
	<path class="st0" d="M1384.7,708.7c-16.9,1.5-16.8,19.8-38.8,33.7c-18.9,11.9-33.7,7.6-36,15.9c-2.9,10.3,16.9,28.7,32.2,27
		c6.8-0.8,13.4-9.3,26.6-26.4c12.8-16.7,10.3-16.9,19.2-26.6c8.7-9.5,15.1-13.7,13.4-17.9C1399.6,710.4,1391.5,708.2,1384.7,708.7z"
		/>
	<path class="st0" d="M135.2,681.4c1.1,7.8,6.8,20.6,16.6,29.3c9.2,8.3,16.5,8,38.3,17.4c15,6.5,22.6,9.7,30,15.2
		c12,8.9,19.8,21.5,35.2,46.7c4.1,6.7,7.2,12.1,7.3,19.6c0.1,8.6-3.8,17.9-9.3,22.8c-17.3,15.3-65.4,0.6-84.9-31.5
		c-11.2-18.3-10.5-38-16.6-38c-4.8,0-10.5,12.4-10.4,23.9c0.3,17.8,14.8,32.6,33.1,45.6c44.8,31.8,98.8,43.4,171.9,56.5
		c90.1,16.1,120.7,18.7,131.5,1.1c3.7-6,2.4-9.9,3.1-26.1c0.2-5.1,3-56.8,24.9-103.2c2.9-6.1,18-37.3,49.7-66.3
		c13-11.9,32.1-29,62.1-39.1c14.1-4.8,35.7-11.7,63.2-6.5c32,6.1,52.2,24.9,59,31.5c22.4,21.5,30.8,45.5,34.2,55.4
		c10.6,31.3,7.8,58.1,6.2,73.9c-1,10.1-2.6,24.8-9.1,42.7c-5.4,14.6-12.7,27.3-11.6,28c1.2,0.8,8.3-15.6,24.9-25
		c5.9-3.3,10.9-4.6,20.7-6.5c25.4-4.9,41.7-5.8,54.9-7.6c21.6-2.9,34.7-8.3,46.6-12c65.8-20.3,197.5-21.7,206.1-21.7
		c100.5-0.8,158.2,11,177.1-22.8c0.6-1.1,2.5-7.3,6.2-19.6c18.3-60.4,16.8-68.3,26.9-93.4c9.7-24.1,18.1-44,38.3-58.7
		c7.1-5.1,23.2-16.8,43.5-14.1c29.1,3.8,44.5,34.2,48.7,42.4c19.3,37.9-1.3,81.1,4.1,82.6c3.3,0.9,11.7-13.9,14.5-30.4
		c1.8-10.7-0.2-13.8-1-34.8c-0.9-22.6,1.2-24.1,0-41.3c-1.2-17.2-4.3-30.1-6.2-38c-7.1-29.1-10.5-44-21.8-53.2
		c-14.7-12.1-33.1-11.4-48.7-10.9c-30.6,1.1-37.7,5.4-57,3.3c-24.9-2.8-38.3-16.6-57-29.3c-56.2-38.3-137-50.8-154.3-26.1
		c-10.1,14.3,8,31.5-4.1,63c-8.8,23-26.6,35.1-31.1,38c-20.9,13.8-42.4,13.2-59,13c-83.5-0.9-39.5,9.2-161.3,6.4
		c-29.8-0.7-23.3-1.1-81.1-3.2c-81.1-2.9-121.7-4.8-138.8-3.3c-66.2,5.9-105.1,9.3-156.4,23.9c-17.2,4.9-38,11.7-67.3,10.9
		c-34.2-1-77.7-12.1-78.7-27.2c-0.7-10.3,17.9-23.5,28-19.6c9.5,3.7,10.2,22,15.5,21.7c4.7-0.2,4.3-14.1,12.4-17.4
		c7.8-3.1,15.1,6.9,21.8,3.3c4.5-2.5,3.9-8.6,6.2-14.1c5.9-14,27.8-16.8,55.9-19.6c40.7-3.9,63.2-4.6,63.2-5.4
		c0-1.3-48.7-8.4-108.8-3.3c-23.9,2-65.4,5.8-117,21.7C238.9,578.9,129.2,638.4,135.2,681.4z"/>
	<path class="st0" d="M427.3,765.1c-9.3,13.7-13.3,25.4-19.7,44.6c-12.3,36.8-8.6,45.6-18.6,53.2c-13.6,10.3-35.6,5.9-37.3,0
		c-0.9-3,3.8-5.2,8.3-14.1c4.2-8.3,4.7-15.5,5.2-19.6c2-15.4,12.5-45.6,31.1-64.1c18.1-18.1,43.2-24.6,45.6-20.6
		C443.3,746.8,436.1,752,427.3,765.1z"/>
	<path class="st0" d="M246.1,765.1c-3.4,7.4-49.5-11-51.8-12c-20.5-8.3-39.8-16.4-47.6-35.9c-1.8-4.5-5.5-13.7-2.1-17.4
		C156.9,686.5,251.2,753.8,246.1,765.1z"/>
	<path class="st0" d="M260.6,791.1c-0.4,2-27.9,0.2-55.9-9.8c-17.7-6.3-29-13.5-33.1-16.3c-12.3-8.2-27.1-20.9-25.9-22.8
		c1.7-2.7,31.7,20.5,81.8,38C248,787.4,260.8,789.8,260.6,791.1z"/>
	<path class="st0" d="M270.9,816.1c-0.4,2-27.9,0.2-55.9-9.8c-17.7-6.3-29-13.5-33.1-16.3c-12.3-8.2-27.1-20.9-25.9-22.8
		c1.7-2.7,31.7,20.5,81.8,38C258.3,812.4,271.2,814.8,270.9,816.1z"/>
	<path class="st0" d="M438.3,619.4c-38.9,1.2-63-11.5-71.4-16.3c-13.3-7.7-24-14-24.5-24.5c-0.7-13.8,16.6-29.6,27.9-25.9
		c6.7,2.2,9.6,10.8,12.3,16.3c20.2,42.1,90.6,36.3,90.3,43.6C472.8,616.5,452.6,618.9,438.3,619.4z"/>
	<path class="st0" d="M378.6,566.2c1.6-10,20.7-18.3,32.1-13c7.2,3.3,8.3,10.8,12.4,17.4c18.8,30.3,82.6,15,83.9,22.8
		c0.8,4.6-20.9,16.7-46.6,17.4C418.6,611.9,376,582.6,378.6,566.2z"/>
	<path class="st0" d="M449.1,545.6c-20.6,4.1-33.7,6.6-35.2,14.1c-2,9.7,16.1,22.2,28,28.3c20.6,10.5,39.6,9.9,81.8,6.5
		c38.8-3.1,67.8-6.1,71.5-6.5c51.2-5.4,93.3-9.1,93.2-10.9c-0.2-3.2-143.6,11-150.2-17.4c-2.5-10.7,16.1-20.3,12.4-28.3
		C546.9,523.2,525.9,530.2,449.1,545.6z"/>
	<path class="st0" d="M297.9,581.4c11.7,6.1,9.6,16.6,20.7,30.4c11.6,14.4,30.9,24.1,97.4,27.2c68.4,3.1,97.3-5,99.4,2.2
		c3,10.2-49.6,44.1-110.8,59.8c-78.9,20.2-135.6,0.7-204-22.8c-13.7-4.7-30.6-11.3-32.1-22.8c-2-15,23.1-29.6,60.1-51.1
		C280.4,574.1,293.3,579,297.9,581.4z"/>
	<path class="st0" d="M535,686.8c-1.5,3.3-5.3,13.2-14.5,22.8c0,0-10,10.4-24.9,16.3c-31.7,12.6-208.9,39.3-213.4,9.8
		c-2-13.2,44.2-33.4,136.7-73.9c57.1-25,88.3-38.4,132.6-48.9c49.5-11.7,85.4-12.6,136.7-14.1c0,0,58.7-1.8,240.3-8.7
		c148.6-5.7,222.9-8.5,271.4-20.6c58.7-14.7,84.3-18.5,135.7-26.1c86.9-12.8,60.7,2.3,91.1-5.4c5-1.3,13.9-3.7,20.7,1.1
		c7.7,5.5,8,22.9,8.3,57.6c0.1,7.6-0.1,10.4-2.1,12c-8.2,6.2-26.4-26-51.8-26.1c-22.3-0.1-26.9,24.6-60.1,35.9
		c-18,6.1-32.5,4.2-44.5,3.3c-36.2-2.9-36.3,3.3-170.9,15.2c-87.8,7.8-73.8,3.9-133.6,9.8C848.2,661,821,678.3,752.6,662.9
		c-34.9-7.9-41.6-15.5-75.6-18.5C614.1,638.9,548.5,657,535,686.8z"/>
	<path class="st0" d="M841.6,450.6c-14.8-10.1-29.7-9.3-61-6.6c-88.3,7.7-92.7,11.8-93.9,16.2c-3.3,12.8,19.4,36.9,44.9,43.4
		c33.2,8.5,47.1-19,96.3-15.5c19.6,1.4,32.1,6.8,35.9,0.5C868.5,480.9,856.9,461.1,841.6,450.6z"/>
	<path class="st0" d="M505,839c-22-88,64.7-191.6,153.3-181.5c56.4,6.5,109.7,58.6,116,123.9c7.7,79.9-57.4,152.6-132.6,156.5
		C580,941,519.6,897.3,505,839z"/>
	<path class="st0" d="M545.2,833.4c-18.1-80.3,53.2-174.8,126-165.5c46.4,5.9,90.2,53.4,95.4,113c6.4,72.8-47.2,139.2-109,142.7
		C606.8,926.4,557.2,886.6,545.2,833.4z"/>
	<path class="st0" d="M562.6,836.3c-17.4-74.8,51-162.9,120.8-154.3c44.5,5.5,86.4,49.8,91.4,105.3c6.1,67.9-45.2,129.8-104.5,133
		C621.8,923,574.2,885.9,562.6,836.3z"/>
	<path class="st0" d="M667.6,781.4c-10.9,3.5-16.8,15-17.6,25c-0.7,9.2,2.7,20,11.4,26.1c11.1,7.7,27.9,5.6,36.3-6.5
		c9.5-13.8,2.2-32.3-8.3-40.2C688.1,784.8,678.7,777.9,667.6,781.4z"/>
	<path class="st0" d="M667.6,794.4c-5-22.2-31.3-19.5-54.9-46.7c-20.3-23.4-16.7-43.8-29-45.6c-15.3-2.3-38.2,26.7-33.1,46.7
		c2.3,9,15.7,16.5,42.5,31.5c26.2,14.7,25.9,11.3,41.4,21.7c15.1,10.2,22.3,18.1,28,15.2C667.8,814.5,669.6,803.4,667.6,794.4z"/>
	<path class="st0" d="M686.3,823.3c19.9-9.8,11.9-32.2,32.6-59.5c17.8-23.5,37.8-25.4,37-36.5c-1-14-33-26.8-50.9-17.5
		c-8,4.2-12.3,17.7-20.9,44.9c-8.4,26.5-5.2,25.4-11.9,41.6c-6.5,15.7-12.5,23.9-8.5,28.2C667.4,828.4,678.2,827.3,686.3,823.3z"/>
	<path class="st0" d="M673.8,827c5.2,10.6,14.1,8.3,29,19.6c21.5,16.3,21.6,35,32.8,35.1c10.4,0.1,23-16,21.1-28.6
		c-2-13.2-18.3-12.5-46.6-35.9c-18.7-15.4-24-26-30.6-23.5C671.8,796.5,667.8,814.9,673.8,827z"/>
	<path class="st0" d="M659.9,806.7c-21.9,1.9-21.9,25.8-50.4,43.7c-24.5,15.4-43.8,9.9-46.8,20.7c-3.7,13.4,22,37.3,41.8,35.1
		c8.9-1,17.4-12.1,34.5-34.4c16.7-21.7,13.4-21.9,25-34.6c11.3-12.3,19.6-17.8,17.4-23.3C679.3,808.9,668.7,805.9,659.9,806.7z"/>
	<path class="st0" d="M682.1,789c-8.1-3.4-21.1,4.1-22.8,15.2c-0.9,5.8,1.4,12.3,6.2,16.3c6.4,5.2,15.6,4.6,20.7,0
		C695.1,812.6,691.7,793,682.1,789z"/>
	<path class="st0" d="M1402.8,697.2c-6.6-2.3-17.1,2.8-18.4,10.3c-0.7,3.9,1.1,8.3,5,11c5.1,3.5,12.6,3.1,16.7,0
		C1413.3,713.1,1410.5,699.9,1402.8,697.2z"/>
	<path class="st0" d="M1067.4,453.2c-18.6-23.8-46.1-24.8-51.8-25c-5.8-0.2-27.4-0.6-46.6,15.2c-20.5,17-35.7,50.6-23.8,80.4
		c12.6,31.7,47.4,38.1,52.8,39.1c8.7,1.6,35.2,4.8,58-14.1c7.4-6.1,12.1-12.6,13.9-15.4c2.9-4.3,11.2-17.2,12-35.7
		C1082.9,473.9,1070.6,457.2,1067.4,453.2z"/>
	<path class="st0" d="M798.1,756.4c-5.4,17.6,16.1,51.8-2.1,75c-3.4,4.3-7,6.8-6.2,8.7c2.7,6.5,49.8-13,102.5-25
		c24.5-5.6,54.3-8,113.9-13c78.1-6.5,117.1-9.8,147.1-8.7c59.5,2.2,75.9,10.6,98.4-4.3c35.7-23.7,50-81.7,38.3-91.3
		c-7-5.7-23.4,5.7-30,9.8C1157.7,770.9,816.3,696.9,798.1,756.4z"/>
	<path class="st0" d="M952.5,457.6c11.8-11.8,26.3-13.3,35.2-14.1c31.1-3,62.3,13.7,76.6,39.1c3.9,6.9,9.6,17,6.2,26.1
		c-2.7,7.1-10.8,13-48.7,17.4c-46.3,5.3-69.4,8-78.7-4.3C931.1,505.7,935.7,474.4,952.5,457.6z"/>
	<path class="st0" d="M893.4,533.6c8.3-5.2,13.6,0.4,32.1-1.1c15.8-1.3,16.6-5.8,33.1-8.7c14.5-2.5,37-6.5,47.6,6.5
		c9.6,11.7,7.5,34.9-2.1,41.3c-2.9,2-5.3,1.5-14.5,1.1c-25.7-1.1-25.2,2-38.3,0c-20.4-3-21.7-10.5-30-7.6
		c-12.7,4.5-9.6,21.9-24.9,31.5c-11.7,7.4-28.5,6.6-32.1,0c-2.7-5,3.6-10.1,13.5-31.5C887.7,543.7,886.4,538.1,893.4,533.6z"/>
	<path class="st0" d="M1518,936.8"/>
	<path class="st0" d="M519.5,609.7c0.8,6.1-32.3,11.8-87,34.8c-35.3,14.8-37.2,19.1-62.1,27.2c-32.1,10.4-76.5,18.7-79.8,9.8
		c-2.9-7.9,26.8-27.1,42.5-35.9c14.8-8.3,19.9-8.8,89.1-29.3c22.8-6.8,38-11.4,60.1-12C493.4,604,518.8,604.4,519.5,609.7z"/>
	<path class="st0" d="M317.5,572.7c-11.1,14.7-22.4,13.5-47.6,25c-13.5,6.2-36.5,18.5-63.2,29.3c-3.1,1.3-9.8,3.9-12.4,1.1
		c-3.7-4,3.1-16.5,4.1-18.5c9.5-17.6,27.2-24.2,63.2-38c48-18.4,60-23.3,63.2-18.5C328.3,558.5,318.7,571.3,317.5,572.7z"/>
</g>
<path d="M382,620c16.1-38.6,173.7-20.3,269,0c59.8,12.7,74.7,21.8,101,12c63.6-23.8,51.9-105.2,115-154c56.3-43.6,133-30.7,208-18
	c132.4,22.3,131.1,80.5,283,118c16.8,4.1,45.4,10.5,66,35c32.4,38.4,33.4,107.3,3,137c-33.2,32.4-95.4,10.1-153-1
	c-103.6-19.9-119,11-535,98c-187.6,39.2-277.3,52.4-305,10c-24.2-37,13.5-94.1-26-181C392.4,641.7,376.5,633,382,620z"/>
<path d="M173,702c13.7,12.9,25.9,13.4,45,21c14,5.6,29.1,11.6,42,25c5,5.2,24.2,25.3,20,51c-0.8,5.2-2.8,17.2-12,24
	c-22.6,16.8-76-7.2-88-41c-3.1-8.7,0-8.2-3-29c-5.2-35.5-17.4-58.3-14-60C164.6,692.2,167.5,696.8,173,702z"/>
<path class="st1" d="M557,542c17.2-17.2,37.4-21.4,50-25c62.3-17.7,56.9-53.5,119-69c27.9-6.9,58.3-7,66-7c3,0,16.4,1,43,3
	c45.2,3.4,55.4,4.4,66,13c3.5,2.9,13.6,11,16,24c2.3,12.5-5.4,26.2-21,53c-9.3,16.1-10.7,16-16,27c-9.1,19.1-7.4,24.5-14,29
	c-8.9,6-18.3,0.4-44-3c-3.7-0.5-15.1-1-38-2c-34.4-1.5-66.6-0.4-105,1c-3.9,0.1-43.5,1.6-95-1c-21.6-1.1-38.2-2.5-42-12
	C537.4,561.6,553.8,545.2,557,542z"/>
<path class="st2" d="M906,577c14.5-9.5,29.7-2.2,53,0c7.3,0.7,24.5-1.5,59-6c44.5-5.7,49.7-8.6,54-12c14.5-11.2,22.3-30.2,22-48
	c-0.1-5.8-0.3-18.9-9-30c-8.9-11.4-23.4-14.1-52-19c-18.1-3.1-37.8-6.4-64-5c-25.7,1.4-47,6-47,6c-14.2,3.1-22,6-24,3
	c-2.8-4.2,7.3-17.9,20-26c10.6-6.8,20.8-8.3,48-9c34-0.9,51-1.4,69,1c18.1,2.4,32.4,6.6,61,15c31.2,9.1,43.5,14.8,43,19
	c-0.6,5.4-22.4,3.3-28,16c-1.9,4.2-0.9,7.7,0,14c0.3,2.1,3.3,23.7,0,39c-5.7,26.6-31.9,40.9-34,42c-9.9,5.2-14.9,4.4-52,7
	c-34,2.4-27.6,2.9-62,5c-55.7,3.4-64,1.6-65-2C896.9,583,905.1,577.6,906,577z"/>
<path class="st3" d="M550,545c-0.2-0.2,151.4-89.5,184.5-91.7c12.6-0.8,26.6-1.3,26.6-1.3c22.4-0.8,35.6-0.5,54,0
	c45.3,1.1,62.2,4.3,71.3,15c1.5,1.7,5.9,6.9,6.1,14c0.3,9.3-6.7,16.4-9.2,19c-8.4,8.7-66.4,69.4-57.1,88c4.5,8.9,25.8,10.6,37.7,3
	c5.5-3.5,7-7.8,13.2-20l0,0c9.8-18,15.7-28.9,22.4-40c6.6-11,9.2-14.2,14.3-24c3.6-7,5.2-11.1,6.1-16c0.5-2.6,2.5-12.1-1-20
	c-5-11.3-17.3-16.2-25.5-19c-48.8-16.8-92.6-15-92.7-15h0c-56.8,0-76.2,2.6-127.8,29C596.2,505.3,550.1,545.1,550,545z"/>
<path class="st4" d="M1248.2,728c-16.4-62.3,48-135.7,113.9-128.5c41.9,4.6,81.5,41.5,86.2,87.7c5.7,56.6-42.6,108.1-98.5,110.8
	C1304,800.3,1259.1,769.3,1248.2,728z"/>
<path class="st3" d="M1278.1,724.1c-13.5-56.8,39.5-123.8,93.6-117.2c34.5,4.2,67,37.8,70.9,80c4.7,51.6-35,98.6-81,101.1
	C1323.9,790,1287,761.7,1278.1,724.1z"/>
<path class="st5" d="M1291,726.1c-12.9-53,37.9-115.4,89.7-109.3c33,3.9,64.2,35.3,67.9,74.6c4.5,48.1-33.6,91.9-77.6,94.2
	C1335,787.5,1299.6,761.2,1291,726.1z"/>
<path class="st6" d="M1369,687.2c-8.1,2.5-12.5,10.6-13.1,17.7c-0.5,6.5,2,14.2,8.5,18.5c8.3,5.5,20.8,3.9,26.9-4.6
	c7-9.8,1.6-22.9-6.2-28.5C1384.3,689.6,1377.3,684.7,1369,687.2z"/>
<path class="st4" d="M1369,696.5c-3.7-15.8-23.3-13.8-40.8-33.1c-15.1-16.6-12.4-31-21.5-32.3c-11.4-1.6-28.4,18.9-24.6,33.1
	c1.7,6.4,11.6,11.7,31.6,22.3c19.4,10.4,19.3,8,30.8,15.4c11.2,7.2,16.5,12.8,20.8,10.8C1369.2,710.7,1370.5,702.8,1369,696.5z"/>
<path class="st4" d="M1382.9,716.9c14.8-7,8.8-22.8,24.3-42.1c13.3-16.6,28.1-18,27.5-25.9c-0.7-9.9-24.6-19-37.8-12.4
	c-5.9,3-9.1,12.6-15.5,31.8c-6.2,18.7-3.9,18-8.8,29.4c-4.8,11.1-9.3,16.9-6.3,20C1368.9,720.5,1376.9,719.7,1382.9,716.9z"/>
<path class="st4" d="M1373.7,719.5c3.9,7.5,10.5,5.9,21.5,13.9c16,11.5,16.1,24.8,24.4,24.9c7.7,0.1,17.1-11.3,15.7-20.3
	c-1.5-9.4-13.6-8.9-34.6-25.4c-13.9-10.9-17.8-18.4-22.7-16.7C1372.2,697.9,1369.2,710.9,1373.7,719.5z"/>
<path class="st4" d="M1363.3,705.2c-16.3,1.4-16.2,18.3-37.4,31c-18.2,10.9-32.6,7-34.8,14.6c-2.8,9.5,16.4,26.4,31.1,24.8
	c6.6-0.7,12.9-8.6,25.7-24.3c12.4-15.4,9.9-15.5,18.6-24.5c8.4-8.7,14.6-12.6,12.9-16.5C1377.7,706.7,1369.9,704.6,1363.3,705.2z"/>
<path class="st7" d="M157,680c1.1,7.2,6.6,18.9,16,27c8.9,7.7,15.9,7.4,37,16c14.5,5.9,21.8,8.9,29,14c11.6,8.2,19.1,19.8,34,43
	c4,6.2,6.9,11.2,7,18c0.1,8-3.6,16.5-9,21c-16.7,14.1-63.1,0.5-82-29c-10.8-16.8-10.1-34.9-16-35c-4.7,0-10.2,11.4-10,22
	c0.3,16.4,14.3,30,32,42c43.3,29.3,95.4,40,166,52c87,14.9,116.5,17.2,127,1c3.6-5.5,2.3-9.1,3-24c0.2-4.7,2.9-52.3,24-95
	c2.8-5.6,17.3-34.3,48-61c12.5-10.9,31-26.7,60-36c13.6-4.4,34.5-10.8,61-6c30.9,5.6,50.4,22.9,57,29c21.6,19.8,29.8,41.9,33,51
	c10.2,28.8,7.6,53.5,6,68c-1,9.3-2.5,22.8-8.8,39.3c-5.2,13.5-12.2,25.1-11.2,25.7c1.2,0.7,8-14.4,24-23c5.6-3,10.5-4.3,20-6
	c24.5-4.5,40.2-5.3,53-7c20.8-2.7,33.5-7.6,45-11c63.5-18.7,190.7-19.9,199-20c97-0.7,152.8,10.1,171-21c0.6-1,2.4-6.7,6-18
	c17.7-55.6,16.2-62.8,26-86c9.4-22.2,17.4-40.5,37-54c6.9-4.7,22.4-15.5,42-13c28.1,3.5,43,31.4,47,39c18.6,34.9-1.3,74.6,4,76
	c3.2,0.8,11.3-12.8,14-28c1.7-9.8-0.2-12.7-1-32c-0.9-20.8,1.1-22.2,0-38c-1.1-15.8-4.1-27.7-6-35c-6.9-26.8-10.1-40.5-21-49
	c-14.2-11.1-32-10.5-47-10c-29.5,1-36.4,5-55,3c-24.1-2.6-37-15.3-55-27c-54.2-35.2-132.3-46.7-149-24c-9.7,13.2,7.7,29-4,58
	c-8.5,21.1-25.7,32.3-30,35c-20.2,12.7-40.9,12.2-57,12c-80.6-0.8-38.1,8.5-155.7,5.9c-28.7-0.6-22.5-1-78.3-2.9
	c-78.3-2.6-117.5-4.4-134-3c-63.9,5.4-101.5,8.6-151,22c-16.6,4.5-36.7,10.8-65,10c-33-0.9-75-11.2-76-25c-0.7-9.5,17.3-21.6,27-18
	c9.1,3.4,9.8,20.2,15,20c4.5-0.2,4.1-13,12-16c7.6-2.9,14.6,6.3,21,3c4.4-2.3,3.7-7.9,6-13c5.7-12.9,26.9-15.5,54-18
	c39.3-3.6,61-4.2,61-5c0-1.2-47-7.7-105-3c-23.1,1.9-63.1,5.3-113,20C257,585.7,151.2,640.4,157,680z"/>
<path d="M439,757c-8.9,12.6-12.8,23.4-19,41c-11.9,33.9-8.3,42-18,49c-13.1,9.5-34.4,5.4-36,0c-0.8-2.7,3.7-4.8,8-13
	c4-7.7,4.5-14.3,5-18c1.9-14.2,12.1-41.9,30-59c17.4-16.7,41.7-22.6,44-19C454.4,740.2,447.5,745,439,757z"/>
<path class="st8" d="M264,757c-3.3,6.8-47.8-10.2-50-11c-19.8-7.6-38.5-15.1-46-33c-1.8-4.2-5.3-12.6-2-16
	C177.9,684.7,269,746.7,264,757z"/>
<path class="st8" d="M278,781c-0.4,1.8-27,0.2-54-9c-17.1-5.8-28-12.4-32-15c-11.9-7.6-26.2-19.2-25-21c1.6-2.5,30.6,18.9,79,35
	C265.8,777.6,278.2,779.7,278,781z"/>
<path class="st8" d="M288,804c-0.4,1.8-27,0.2-54-9c-17.1-5.8-28-12.4-32-15c-11.9-7.6-26.2-19.2-25-21c1.6-2.5,30.6,18.9,79,35
	C275.8,800.6,288.2,802.7,288,804z"/>
<path class="st8" d="M449.6,622.9c-37.6,1.1-60.8-10.6-68.9-15c-12.8-7.1-23.2-12.9-23.7-22.6c-0.6-12.7,16.1-27.2,26.9-23.8
	c6.5,2,9.3,10,11.8,15c19.5,38.8,87.4,33.4,87.2,40.1C482.9,620.2,463.4,622.5,449.6,622.9z"/>
<path class="st6" d="M392,574c1.6-9.2,20-16.8,31-12c7,3.1,8,9.9,12,16c18.1,27.9,79.8,13.8,81,21c0.7,4.3-20.2,15.4-45,16
	C430.6,616,389.4,589.1,392,574z"/>
<path class="st3" d="M460,555c-19.9,3.8-32.5,6-34,13c-1.9,8.9,15.5,20.5,27,26c19.9,9.6,38.2,9.1,79,6c37.5-2.8,65.4-5.6,69-6
	c49.4-5,90.1-8.4,90-10c-0.2-2.9-138.7,10.1-145-16c-2.4-9.8,15.5-18.7,12-26C554.4,534.5,534.2,540.8,460,555z"/>
<path class="st9" d="M314,588c11.3,5.6,9.3,15.3,20,28c11.2,13.2,29.8,22.2,94,25c66,2.9,93.9-4.6,96,2c2.9,9.4-47.9,40.6-107,55
	c-76.2,18.6-130.9,0.6-197-21c-13.2-4.3-29.5-10.4-31-21c-1.9-13.8,22.3-27.2,58-47C297.1,581.2,309.6,585.8,314,588z"/>
<path class="st10" d="M543,685c-1.4,3-5.1,12.2-14,21c0,0-9.6,9.6-24,15c-30.6,11.6-201.7,36.1-206,9c-1.9-12.1,42.7-30.8,132-68
	c55.1-23,85.2-35.4,128-45c47.8-10.8,82.5-11.6,132-13c0,0,56.6-1.6,232-8c143.5-5.2,215.2-7.8,262-19c56.6-13.5,81.4-17,131-24
	c83.9-11.8,58.6,2.1,88-5c4.9-1.2,13.4-3.4,20,1c7.4,5,7.7,21.1,8,53c0.1,7-0.1,9.6-2,11c-7.9,5.7-25.5-23.9-50-24
	c-21.5-0.1-26,22.6-58,33c-17.4,5.6-31.3,3.9-43,3c-34.9-2.7-35,3.1-165,14c-84.8,7.1-71.2,3.5-129,9c-139.7,13.2-165.9,29.2-232,15
	c-33.7-7.2-40.1-14.2-73-17C619.3,640.9,556,657.6,543,685z"/>
<path class="st11" d="M838.9,467.6c-14.3-9.3-28.7-8.5-58.9-6c-85.3,7.1-89.5,10.9-90.6,14.9c-3.2,11.8,18.8,34,43.3,40
	c32,7.8,45.5-17.5,93-14.3c18.9,1.3,30.9,6.2,34.7,0.4C864.9,495.5,853.7,477.3,838.9,467.6z"/>
<path class="st4" d="M514,825c-21.3-81,62.4-176.4,148-167c54.5,6,105.9,53.9,112,114c7.5,73.5-55.4,140.5-128,144
	C586.4,918.9,528.1,878.7,514,825z"/>
<path class="st3" d="M552.8,819.9c-17.5-73.9,51.3-160.8,121.7-152.3c44.8,5.4,87.1,49.2,92.1,104c6.1,67-45.5,128.1-105.2,131.3
	C612.3,905.5,564.3,868.8,552.8,819.9z"/>
<path class="st5" d="M569.6,822.5c-16.8-68.9,49.2-149.9,116.6-142c42.9,5.1,83.5,45.8,88.3,96.9c5.9,62.5-43.7,119.4-100.9,122.4
	C626.7,902.3,580.8,868.2,569.6,822.5z"/>
<path class="st6" d="M671,772c-10.5,3.2-16.3,13.8-17,23c-0.7,8.4,2.6,18.4,11,24c10.7,7.1,27,5.1,35-6c9.2-12.7,2.1-29.7-8-37
	C690.8,775.1,681.7,768.8,671,772z"/>
<path class="st4" d="M671,784c-4.8-20.5-30.2-17.9-53-43c-19.6-21.5-16.1-40.3-28-42c-14.8-2.1-36.9,24.6-32,43
	c2.2,8.3,15.1,15.2,41,29c25.3,13.5,25,10.4,40,20c14.6,9.4,21.5,16.7,27,14C671.2,802.5,673,792.2,671,784z"/>
<path class="st4" d="M689,810.6c19.2-9.1,11.5-29.6,31.5-54.7c17.2-21.6,36.5-23.3,35.7-33.6c-0.9-12.8-31.9-24.7-49.1-16.1
	c-7.7,3.8-11.9,16.3-20.2,41.3c-8.1,24.4-5.1,23.4-11.5,38.2c-6.3,14.4-12,22-8.2,25.9C670.8,815.3,681.2,814.2,689,810.6z"/>
<path class="st4" d="M677,814c5.1,9.7,13.6,7.6,28,18c20.8,15,20.9,32.2,31.7,32.3c10,0.1,22.2-14.7,20.3-26.3
	c-1.9-12.2-17.7-11.5-45-33c-18-14.2-23.2-23.9-29.5-21.7C675.1,785.9,671.2,802.8,677,814z"/>
<path class="st4" d="M663.6,795.3c-21.2,1.8-21.1,23.7-48.7,40.2c-23.7,14.2-42.3,9.1-45.2,19c-3.6,12.4,21.3,34.3,40.4,32.3
	c8.6-0.9,16.8-11.1,33.3-31.6c16.1-20,12.9-20.2,24.1-31.8c10.9-11.3,19-16.4,16.8-21.4C682.3,797.3,672.1,794.6,663.6,795.3z"/>
<path class="st12" d="M685,779c-7.9-3.2-20.4,3.8-22,14c-0.8,5.3,1.3,11.4,6,15c6.1,4.8,15,4.2,20,0
	C697.6,800.7,694.3,782.7,685,779z"/>
<path class="st12" d="M1380.8,694.5c-6.4-2.1-16.5,2.6-17.8,9.5c-0.7,3.6,1.1,7.7,4.9,10.1c5,3.2,12.1,2.9,16.2,0
	C1390.9,709.2,1388.2,697,1380.8,694.5z"/>
<path class="st13" d="M1057,470c-18-21.9-44.5-22.8-50-23c-5.6-0.2-26.5-0.6-45,14c-19.8,15.6-34.5,46.5-23,74
	c12.2,29.1,45.7,35.1,51,36c8.4,1.5,33.9,4.5,56-13c7.1-5.6,11.7-11.6,13.5-14.1c2.8-4,10.8-15.9,11.5-32.9
	C1071.9,489,1060,473.7,1057,470z"/>
<path class="st9" d="M797,749c-5.2,16.2,15.6,47.7-2,69c-3.2,3.9-6.8,6.3-6,8c2.6,5.9,48.1-12,99-23c23.7-5.1,52.4-7.4,110-12
	c75.4-6,113.1-9,142-8c57.4,2,73.2,9.8,95-4c34.5-21.8,48.3-75.2,37-84c-6.7-5.2-22.6,5.2-29,9C1144.2,762.3,814.5,694.3,797,749z"
	/>
<path class="st14" d="M946,474c11.4-10.9,25.4-12.2,34-13c30.1-2.8,60.1,12.6,74,36c3.8,6.4,9.3,15.7,6,24c-2.6,6.5-10.4,12-47,16
	c-44.7,4.9-67,7.3-76-4C925.4,518.3,929.8,489.5,946,474z"/>
<path class="st7" d="M889,544c8-4.8,13.1,0.4,31-1c15.3-1.2,16-5.3,32-8c14-2.3,35.7-5.9,46,6c9.3,10.8,7.3,32.1-2,38
	c-2.8,1.8-5.1,1.4-14,1c-24.8-1-24.4,1.8-37,0c-19.7-2.8-21-9.7-29-7c-12.2,4.1-9.3,20.1-24,29c-11.3,6.8-27.5,6.1-31,0
	c-2.6-4.6,3.5-9.3,13-29C883.5,553.3,882.2,548.1,889,544z"/>
<path d="M1492,915"/>
<path d="M528,614c0.8,5.7-31.2,10.8-84,32c-34.1,13.7-35.9,17.6-60,25c-30.9,9.5-73.8,17.2-77,9c-2.8-7.2,25.9-24.9,41-33
	c14.3-7.6,19.2-8.1,86-27c22-6.2,36.7-10.5,58-11C502.8,608.7,527.3,609.1,528,614z"/>
<path d="M333,580c-10.8,13.6-21.7,12.4-46,23c-13,5.7-35.2,17-61,27c-3,1.2-9.5,3.6-12,1c-3.5-3.7,3-15.2,4-17
	c9.2-16.2,26.3-22.3,61-35c46.4-17,57.9-21.5,61-17C343.4,566.9,334.1,578.6,333,580z"/>
<path d="M1667,620"/>
</svg>
