<?xml version="1.0" encoding="utf-8"?>
<!-- Generator: Adobe Illustrator 22.0.1, SVG Export Plug-In . SVG Version: 6.00 Build 0)  -->
<svg version="1.1"
	 id="svg2" inkscape:version="0.91 r13725" sodipodi:docname="fman.svg" xmlns:cc="http://creativecommons.org/ns#" xmlns:dc="http://purl.org/dc/elements/1.1/" xmlns:inkscape="http://www.inkscape.org/namespaces/inkscape" xmlns:rdf="http://www.w3.org/1999/02/22-rdf-syntax-ns#" xmlns:sodipodi="http://sodipodi.sourceforge.net/DTD/sodipodi-0.dtd" xmlns:svg="http://www.w3.org/2000/svg"
	 xmlns="http://www.w3.org/2000/svg" xmlns:xlink="http://www.w3.org/1999/xlink" x="0px" y="0px" viewBox="0 0 484.9 246.3"
	 style="enable-background:new 0 0 484.9 246.3;" xml:space="preserve">
<style type="text/css">
	.st0{fill:#D305D3;}
	.st1{fill:#808080;}
	.st2{fill:#666666;}
	.st3{fill:#999999;}
	.st4{fill:#BF1B1B;}
</style>
<defs>
	
	<inkscape:path-effect  effect="spiro" id="path-effect4210" is_visible="true"></inkscape:path-effect>
</defs>
<sodipodi:namedview  bordercolor="#666666" borderopacity="1.0" fit-margin-bottom="0" fit-margin-left="0" fit-margin-right="0" fit-margin-top="0" id="base" inkscape:current-layer="layer1" inkscape:cx="175.05616" inkscape:cy="-140.69037" inkscape:document-units="px" inkscape:pageopacity="0.0" inkscape:pageshadow="2" inkscape:window-height="1017" inkscape:window-maximized="1" inkscape:window-width="1920" inkscape:window-x="0" inkscape:window-y="30" inkscape:zoom="0.7" pagecolor="#ffffff" showgrid="false">
	</sodipodi:namedview>
<g id="layer1" transform="translate(-57.945633,-88.773209)" inkscape:groupmode="layer" inkscape:label="Layer 1">
	<g>
		<g id="layer1_1_" transform="translate(-57.945633,-88.773209)" inkscape:groupmode="layer" inkscape:label="Layer 1">
			<path id="path4136_1_" class="st0" d="M428.3,190.1c34.2,0.9,60.3,15.5,74.6,23.6c19.8,11.2,77.9,43.9,76.5,88.9
				c-1.1,36.4-40.6,61.8-70.2,80.8c-19.8,12.7-46.3,29.8-80.9,31.7c-65.8,3.7-151.2-47.6-151.1-112.5
				C277.2,237.7,362.8,188.5,428.3,190.1z"/>
			
				<path id="path4138_1_" inkscape:flatsided="true" inkscape:randomized="0" inkscape:rounded="0" inkscape:transform-center-x="45.230428" inkscape:transform-center-y="3.1637111" sodipodi:arg1="-3.1155762" sodipodi:arg2="-2.0683787" sodipodi:cx="251.52797" sodipodi:cy="462.43314" sodipodi:r1="271.82303" sodipodi:r2="135.91151" sodipodi:sides="3" sodipodi:type="star" class="st0" d="
				M206.3,300.6c67.8-29.7,135.7-59.4,203.5-89.1c1.1,62.7,2.2,125.5,3.4,188.2C344.2,366.7,275.2,333.6,206.3,300.6z"/>
			<path id="path4136-6_1_" class="st0" d="M492.5,208c4.5-3.1,16.7,6.3,41.2,25.1c10.4,8,15.6,11.9,20.9,17.7
				c10.4,11.1,25.6,27.4,25.3,48.6c-0.3,15.6-8.9,27-20,41.6c-8.1,10.7-15.6,17-27.5,27c-21.6,18.1-35.9,30.1-41,26.5
				c-8.1-5.8,22.8-41.1,23.1-92.6C514.8,250.1,484.1,213.8,492.5,208z"/>
			
				<path id="path4138-3_1_" inkscape:flatsided="true" inkscape:randomized="0" inkscape:rounded="0" inkscape:transform-center-x="20.679851" inkscape:transform-center-y="1.1604154" sodipodi:arg1="-3.1155762" sodipodi:arg2="-2.0683787" sodipodi:cx="251.52797" sodipodi:cy="462.43314" sodipodi:r1="271.82303" sodipodi:r2="135.91151" sodipodi:sides="3" sodipodi:type="star" class="st0" d="
				M223.1,349.7c-19.2-32.1-11.2-69,10.1-82.6c20.2-12.9,46-0.7,48.4,0.5c1.1,23.5,2.2,47.1,3.3,70.6
				C264.3,342.1,243.7,345.9,223.1,349.7z"/>
			
				<path id="path4138-3-5-6_1_" inkscape:flatsided="true" inkscape:randomized="0" inkscape:rounded="0" inkscape:transform-center-x="-11.163979" inkscape:transform-center-y="10.108328" sodipodi:arg1="-3.1155762" sodipodi:arg2="-2.0683787" sodipodi:cx="251.52797" sodipodi:cy="462.43314" sodipodi:r1="271.82303" sodipodi:r2="135.91151" sodipodi:sides="3" sodipodi:type="star" class="st0" d="
				M229.3,338.2l-0.9,46.4l49.4-48.5L229.3,338.2z"/>
			
				<path id="path4138-3-5-6-2_1_" inkscape:flatsided="true" inkscape:randomized="0" inkscape:rounded="0" inkscape:transform-center-x="-9.4498406" inkscape:transform-center-y="-9.4895029" sodipodi:arg1="-3.1155762" sodipodi:arg2="-2.0683787" sodipodi:cx="251.52797" sodipodi:cy="462.43314" sodipodi:r1="271.82303" sodipodi:r2="135.91151" sodipodi:sides="3" sodipodi:type="star" class="st0" d="
				M233.2,267.1l-0.8-43.6l41.8,45.5L233.2,267.1z"/>
			<path id="rect4140_1_" class="st0" d="M153.9,196.5c35.6,0.3,71.2,0.7,106.8,1c0,56.3,0,112.7,0,169c0,9.6,0,19.2,0,28.9
				c-34.6-0.3-69.1-0.6-103.7-0.9C155.9,328.5,154.9,262.5,153.9,196.5z"/>
			<g id="flowRoot4272_1_" transform="matrix(1.3492935,0,0,1.7009222,-84.443883,-217.97281)">
			</g>
			<g id="flowRoot4272-9_1_" transform="matrix(1.3492935,0,0,1.7009222,-82.39813,-120.95499)">
			</g>
			<path class="st0" d="M305.3,333.9c-4.6,4.9-8.7,3.8-21.3,13.6c-8,6.3-9.2,9-14.3,13c-10.8,8.5-28.1,14.1-36.9,11
				c-29.6-10.7-19-144.2,9.2-149c5.7-1,12.7,5,26.6,17c9.3,8,22.6,19.5,31.7,39C302.9,284.1,319.2,318.9,305.3,333.9z"/>
		</g>
		<path class="st0" d="M364.2,101.3c-2.5,2.8,4.6,11.6,10,24.7c3.4,8.1,4.7,15.6,7.4,30.5c2.5,13.9,6,33.3,6.3,59.8
			c0.3,23.3,0.6,40.9-5.3,63.1c-6.4,24.3-17.2,43.4-12.3,46.9c1.8,1.3,3.8-0.7,14.5-3c10.4-2.3,12.5-1.3,15.8-2.6
			c8.1-3.1,12.4-15.9,14.8-43.5c1-11.7,1.5-24.5,0-63.1c0,0-0.9-22.3-4.2-56.6c0,0-1-9.8-6.1-30.8c-3.9-15.6-6.2-20.5-10.7-22.6
			c-4.3-2.1-6.3,0.4-16.9-1C368.6,102,365.6,99.7,364.2,101.3z"/>
		<path class="st0" d="M506.6,173.9c-2.7,0.6-0.6,10.6-2.6,40.2c-1.8,27.4-4.8,37-2.1,38.1c3.8,1.5,16.8-14.7,19.2-33.9
			C524,195.1,510.9,173,506.6,173.9z"/>
	</g>
	<path id="path4136" class="st1" d="M368.3,110c32.4,0.8,57.1,14.3,70.7,21.7c18.8,10.3,73.8,40.4,72.5,81.7
		c-1,33.5-38.4,56.8-66.5,74.3c-18.7,11.7-43.9,27.4-76.7,29.2c-62.3,3.4-143.2-43.8-143.2-103.4C225.1,153.8,306.2,108.5,368.3,110
		z"/>
	
		<path id="path4138" inkscape:flatsided="true" inkscape:randomized="0" inkscape:rounded="0" inkscape:transform-center-x="45.230428" inkscape:transform-center-y="3.1637111" sodipodi:arg1="-3.1155762" sodipodi:arg2="-2.0683787" sodipodi:cx="251.52797" sodipodi:cy="462.43314" sodipodi:r1="271.82303" sodipodi:r2="135.91151" sodipodi:sides="3" sodipodi:type="star" class="st1" d="
		M158,211.6c64.3-27.3,128.5-54.6,192.8-81.9c1.1,57.7,2.1,115.4,3.2,173C288.6,272.4,223.3,242,158,211.6z"/>
	<path id="path4136-6" class="st2" d="M429.1,126.5c4.2-2.8,15.8,5.8,39,23c9.8,7.3,14.7,11,19.8,16.3c9.8,10.2,24.3,25.2,24,44.7
		c-0.2,14.4-8.5,24.9-18.9,38.3c-7.7,9.8-14.8,15.7-26.1,24.8c-20.4,16.6-34,27.7-38.9,24.3c-7.7-5.3,21.6-37.8,21.9-85.2
		C450.3,165.2,421.1,131.8,429.1,126.5z"/>
	
		<path id="path4138-3" inkscape:flatsided="true" inkscape:randomized="0" inkscape:rounded="0" inkscape:transform-center-x="20.679851" inkscape:transform-center-y="1.1604154" sodipodi:arg1="-3.1155762" sodipodi:arg2="-2.0683787" sodipodi:cx="251.52797" sodipodi:cy="462.43314" sodipodi:r1="271.82303" sodipodi:r2="135.91151" sodipodi:sides="3" sodipodi:type="star" class="st2" d="
		M173.9,256.8c-18.2-29.5-10.6-63.5,9.6-75.9c19.1-11.9,43.6-0.6,45.8,0.5c1,21.6,2.1,43.3,3.1,64.9
		C212.9,249.8,193.4,253.3,173.9,256.8z"/>
	
		<path id="path4138-3-5-6" inkscape:flatsided="true" inkscape:randomized="0" inkscape:rounded="0" inkscape:transform-center-x="-11.163979" inkscape:transform-center-y="10.108328" sodipodi:arg1="-3.1155762" sodipodi:arg2="-2.0683787" sodipodi:cx="251.52797" sodipodi:cy="462.43314" sodipodi:r1="271.82303" sodipodi:r2="135.91151" sodipodi:sides="3" sodipodi:type="star" class="st3" d="
		M179.7,246.2l-0.9,42.7l46.8-44.6L179.7,246.2z"/>
	
		<path id="path4138-3-5-6-2" inkscape:flatsided="true" inkscape:randomized="0" inkscape:rounded="0" inkscape:transform-center-x="-9.4498406" inkscape:transform-center-y="-9.4895029" sodipodi:arg1="-3.1155762" sodipodi:arg2="-2.0683787" sodipodi:cx="251.52797" sodipodi:cy="462.43314" sodipodi:r1="271.82303" sodipodi:r2="135.91151" sodipodi:sides="3" sodipodi:type="star" class="st3" d="
		M183.5,180.9l-0.8-40.1l39.6,41.9L183.5,180.9z"/>
	<rect id="rect4140" x="104.5" y="116.9" class="st1" width="91.7" height="182"/>
	<g id="flowRoot4272" transform="matrix(1.3492935,0,0,1.7009222,-84.443883,-217.97281)">
	</g>
	<g id="flowRoot4272-9" transform="matrix(1.3492935,0,0,1.7009222,-82.39813,-120.95499)">
	</g>
</g>
<path class="st4" d="M439.5,88c-2.6,0.6-0.6,9.7-2.5,37c-1.7,25.2-4.6,34-2,35c3.6,1.4,15.9-13.5,18.2-31.2
	C455.9,107.5,443.5,87.1,439.5,88z"/>
<path class="st2" d="M-256-96"/>
<path class="st0" d="M170.5,163"/>
<path class="st0" d="M-334-133"/>
</svg>
