<?xml version="1.0" encoding="UTF-8" standalone="no"?>
<svg
   xmlns:dc="http://purl.org/dc/elements/1.1/"
   xmlns:cc="http://creativecommons.org/ns#"
   xmlns:rdf="http://www.w3.org/1999/02/22-rdf-syntax-ns#"
   xmlns:svg="http://www.w3.org/2000/svg"
   xmlns="http://www.w3.org/2000/svg"
   xmlns:sodipodi="http://sodipodi.sourceforge.net/DTD/sodipodi-0.dtd"
   xmlns:inkscape="http://www.inkscape.org/namespaces/inkscape"
   viewBox="0 0 90 90"
   x="0px"
   y="0px"
   version="1.1"
   id="svg1178"
   sodipodi:docname="info-icon.svg"
   width="90"
   height="90"
   inkscape:version="0.92.2 (5c3e80d, 2017-08-06)">
  <metadata
     id="metadata1184">
    <rdf:RDF>
      <cc:Work
         rdf:about="">
        <dc:format>image/svg+xml</dc:format>
        <dc:type
           rdf:resource="http://purl.org/dc/dcmitype/StillImage" />
        <dc:title>BS-Info-Rounded-Square</dc:title>
      </cc:Work>
    </rdf:RDF>
  </metadata>
  <defs
     id="defs1182" />
  <sodipodi:namedview
     pagecolor="#ffffff"
     bordercolor="#666666"
     borderopacity="1"
     objecttolerance="10"
     gridtolerance="10"
     guidetolerance="10"
     inkscape:pageopacity="0"
     inkscape:pageshadow="2"
     inkscape:window-width="1680"
     inkscape:window-height="1050"
     id="namedview1180"
     showgrid="false"
     fit-margin-top="0"
     fit-margin-left="0"
     fit-margin-right="0"
     fit-margin-bottom="0"
     inkscape:zoom="2.36"
     inkscape:cx="-30.847458"
     inkscape:cy="45"
     inkscape:window-x="0"
     inkscape:window-y="0"
     inkscape:window-maximized="0"
     inkscape:current-layer="svg1178" />
  <title
     id="title1172">BS-Info-Rounded-Square</title>
  <path
     d="M 82,8 V 82 H 8 V 8 H 82 M 82,0 H 8 A 8,8 0 0 0 0,8 v 74 a 8,8 0 0 0 8,8 h 74 a 8,8 0 0 0 8,-8 V 8 A 8,8 0 0 0 82,0 Z"
     id="path1174"
     inkscape:connector-curvature="0"
     style="fill:#b380ff" />
  <path
     d="M 53.47,63.54 V 70 H 37.22 v -6.46 h 3.6 V 43.37 h -4.3 V 36.93 H 49.68 V 63.54 Z M 45,31.87 A 5.94,5.94 0 1 0 39.06,25.93 5.94,5.94 0 0 0 45,31.87 Z"
     id="path1176"
     inkscape:connector-curvature="0"
     style="fill:#b380ff" />
</svg>
