<?xml version="1.0" encoding="UTF-8" standalone="no"?>
<!-- Created with Inkscape (http://www.inkscape.org/) -->

<svg
   xmlns:dc="http://purl.org/dc/elements/1.1/"
   xmlns:cc="http://creativecommons.org/ns#"
   xmlns:rdf="http://www.w3.org/1999/02/22-rdf-syntax-ns#"
   xmlns:svg="http://www.w3.org/2000/svg"
   xmlns="http://www.w3.org/2000/svg"
   xmlns:sodipodi="http://sodipodi.sourceforge.net/DTD/sodipodi-0.dtd"
   xmlns:inkscape="http://www.inkscape.org/namespaces/inkscape"
   width="121.72089mm"
   height="33.62886mm"
   viewBox="0 0 431.2945 119.15738"
   id="svg2"
   version="1.1"
   inkscape:version="0.91 r13725"
   sodipodi:docname="logo.svg">
  <defs
     id="defs4" />
  <sodipodi:namedview
     id="base"
     pagecolor="#ffffff"
     bordercolor="#666666"
     borderopacity="0.34117647"
     inkscape:pageopacity="0"
     inkscape:pageshadow="2"
     inkscape:zoom="1.979899"
     inkscape:cx="130.47273"
     inkscape:cy="-175.61491"
     inkscape:document-units="px"
     inkscape:current-layer="layer1"
     showgrid="false"
     fit-margin-top="0"
     fit-margin-left="0"
     fit-margin-right="0"
     fit-margin-bottom="0"
     inkscape:showpageshadow="true"
     showborder="true"
     inkscape:window-width="3200"
     inkscape:window-height="1674"
     inkscape:window-x="0"
     inkscape:window-y="60"
     inkscape:window-maximized="1"
     borderlayer="true" />
  <metadata
     id="metadata7">
    <rdf:RDF>
      <cc:Work
         rdf:about="">
        <dc:format>image/svg+xml</dc:format>
        <dc:type
           rdf:resource="http://purl.org/dc/dcmitype/StillImage" />
        <dc:title />
      </cc:Work>
    </rdf:RDF>
  </metadata>
  <g
     inkscape:label="Layer 1"
     inkscape:groupmode="layer"
     id="layer1"
     transform="translate(-207.70943,-131.34193)">
    <flowRoot
       xml:space="preserve"
       id="flowRoot4136"
       style="font-style:normal;font-variant:normal;font-weight:normal;font-stretch:normal;font-size:40px;line-height:125%;font-family:'Rubik Mono One';-inkscape-font-specification:'Rubik Mono One';letter-spacing:0px;word-spacing:0px;fill:#000000;fill-opacity:1;stroke:none;stroke-width:1px;stroke-linecap:butt;stroke-linejoin:miter;stroke-opacity:1"><flowRegion
         id="flowRegion4138"><rect
           id="rect4140"
           width="407.59656"
           height="304.05591"
           x="104.55079"
           y="180.60056"
           style="font-style:normal;font-variant:normal;font-weight:normal;font-stretch:normal;font-family:'Rubik Mono One';-inkscape-font-specification:'Rubik Mono One'" /></flowRegion><flowPara
         id="flowPara4142" /></flowRoot>    <text
       xml:space="preserve"
       style="font-style:normal;font-weight:normal;font-size:40px;line-height:125%;font-family:sans-serif;letter-spacing:0px;word-spacing:0px;fill:#000000;fill-opacity:1;stroke:none;stroke-width:1px;stroke-linecap:butt;stroke-linejoin:miter;stroke-opacity:1"
       x="357.08893"
       y="286.1615"
       id="text4148"
       sodipodi:linespacing="125%"><tspan
         sodipodi:role="line"
         id="tspan4150"
         x="357.08893"
         y="286.1615" /></text>
    <rect
       y="133.34193"
       x="209.7094"
       height="115.15739"
       width="427.29453"
       id="rect4211"
       style="opacity:0.54100001;fill:#000000;fill-opacity:0.31540342;stroke:#000000;stroke-width:4.00000048;stroke-linejoin:bevel;stroke-miterlimit:4;stroke-dasharray:16.00000095, 4.00000024;stroke-dashoffset:0;stroke-opacity:1" />
    <g
       style="font-style:normal;font-weight:normal;font-size:45.32618713px;line-height:125%;font-family:sans-serif;letter-spacing:0px;word-spacing:0px;fill:#ffffff;fill-opacity:1;stroke:none;stroke-width:4.00000048;stroke-linecap:butt;stroke-linejoin:bevel;stroke-miterlimit:4;stroke-dasharray:none;stroke-opacity:1"
       id="text4213">
      <path
         d="m 316.16289,201.97505 -9.67166,0 -1.90334,6.72811 -6.55105,0 10.55693,-32.22409 5.64364,0 10.35774,32.22409 -6.55105,0 -1.88121,-6.72811 z m -8.14455,-5.28953 6.68384,0 -3.29766,-11.86271 -3.38618,11.86271 z"
         style="font-style:normal;font-variant:normal;font-weight:bold;font-stretch:normal;font-family:'Roboto Mono';-inkscape-font-specification:'Roboto Mono Bold';letter-spacing:0px;word-spacing:0px;fill:#ffffff;stroke:none;stroke-width:4.00000048;stroke-linejoin:bevel;stroke-miterlimit:4;stroke-dasharray:none;stroke-opacity:1"
         id="path4151" />
      <path
         d="m 344.22617,200.29302 q 0,-0.86314 -0.30985,-1.61563 -0.28771,-0.75248 -1.01806,-1.39431 -0.70823,-0.66396 -1.88122,-1.19512 -1.15086,-0.5533 -2.87715,-1.01807 -2.10253,-0.57543 -4.02801,-1.43858 -1.90335,-0.86314 -3.36405,-2.0804 -1.46071,-1.21725 -2.34599,-2.83288 -0.86314,-1.61564 -0.86314,-3.71817 0,-2.03614 0.86314,-3.69603 0.86315,-1.6599 2.39025,-2.83289 1.5271,-1.17299 3.60751,-1.79268 2.0804,-0.64183 4.51491,-0.64183 2.52304,0 4.60344,0.73035 2.10253,0.73036 3.6075,2.05827 1.50497,1.30579 2.34599,3.12061 0.84101,1.81481 0.84101,3.98374 l -6.06415,0 q -0.0443,-1.08446 -0.39837,-1.99187 -0.33198,-0.90741 -1.01807,-1.54924 -0.66396,-0.66395 -1.68203,-1.01806 -0.99593,-0.37625 -2.34598,-0.37625 -1.23939,0 -2.21319,0.30985 -0.95168,0.28771 -1.61563,0.84101 -0.66396,0.53117 -1.01807,1.28365 -0.33198,0.73036 -0.33198,1.5935 0,0.90741 0.44264,1.63777 0.46477,0.73035 1.32791,1.32791 0.86315,0.57543 2.0804,1.06233 1.23939,0.48691 2.78863,0.90741 2.21319,0.64183 4.07227,1.57137 1.85908,0.92954 3.187,2.21319 1.35005,1.26152 2.0804,2.89929 0.75249,1.61563 0.75249,3.6075 0,2.12466 -0.86315,3.78456 -0.84101,1.63776 -2.34598,2.78862 -1.50498,1.12873 -3.58538,1.72629 -2.0804,0.57543 -4.53704,0.57543 -1.5271,0 -3.05421,-0.28771 -1.50497,-0.26559 -2.89928,-0.84102 -1.37218,-0.57543 -2.5673,-1.43857 -1.19513,-0.86315 -2.0804,-2.01401 -0.86315,-1.15086 -1.37218,-2.61156 -0.48691,-1.46071 -0.48691,-3.23127 l 6.10842,0 q 0.0443,1.46071 0.50903,2.50091 0.46477,1.0402 1.28365,1.70416 0.84101,0.66396 1.99187,0.97381 1.173,0.30984 2.56731,0.30984 1.23939,0 2.19106,-0.28771 0.9738,-0.28772 1.63776,-0.79675 0.66396,-0.50904 1.01807,-1.21726 0.35411,-0.73035 0.35411,-1.5935 z"
         style="font-style:normal;font-variant:normal;font-weight:bold;font-stretch:normal;font-family:'Roboto Mono';-inkscape-font-specification:'Roboto Mono Bold';letter-spacing:0px;word-spacing:0px;fill:#ffffff;stroke:none;stroke-width:4.00000048;stroke-linejoin:bevel;stroke-miterlimit:4;stroke-dasharray:none;stroke-opacity:1"
         id="path4153" />
      <path
         d="m 378.3536,181.54728 -9.93723,0 0,27.15588 -6.24121,0 0,-27.15588 -9.80444,0 0,-5.06821 25.98288,0 0,5.06821 z"
         style="font-style:normal;font-variant:normal;font-weight:bold;font-stretch:normal;font-family:'Roboto Mono';-inkscape-font-specification:'Roboto Mono Bold';letter-spacing:0px;word-spacing:0px;fill:#ffffff;stroke:none;stroke-width:4.00000048;stroke-linejoin:bevel;stroke-miterlimit:4;stroke-dasharray:none;stroke-opacity:1"
         id="path4155" />
      <path
         d="m 392.78362,196.66339 -4.7141,0 0,12.03977 -6.21907,0 0,-32.22409 10.80038,0 q 2.67796,0 4.84689,0.64183 2.16893,0.61969 3.69603,1.83695 1.54924,1.21725 2.36812,3.03207 0.84101,1.81482 0.84101,4.20507 0,1.72629 -0.42051,3.1206 -0.39837,1.37218 -1.17299,2.47877 -0.75248,1.08447 -1.83695,1.90335 -1.06233,0.81888 -2.39025,1.41644 l 6.9273,13.30129 0,0.28772 -6.66171,0 -6.06415,-12.03977 z m -4.7141,-5.04608 4.60344,0 q 2.6337,0 4.05014,-1.32792 1.43858,-1.35005 1.43858,-3.6739 0,-2.41238 -1.39431,-3.74029 -1.39432,-1.35005 -4.11654,-1.35005 l -4.58131,0 0,10.09216 z"
         style="font-style:normal;font-variant:normal;font-weight:bold;font-stretch:normal;font-family:'Roboto Mono';-inkscape-font-specification:'Roboto Mono Bold';letter-spacing:0px;word-spacing:0px;fill:#ffffff;stroke:none;stroke-width:4.00000048;stroke-linejoin:bevel;stroke-miterlimit:4;stroke-dasharray:none;stroke-opacity:1"
         id="path4157" />
      <path
         d="m 418.21321,194.60512 -8.67572,-2.12467 1.46071,-4.53704 8.29947,3.6739 -0.79675,-9.53886 4.84689,0 -0.86314,9.69378 8.23307,-3.6075 1.46071,4.62557 -8.80851,2.01401 5.93136,7.14861 -3.93948,2.85502 -4.66984,-8.23308 -4.66984,7.98963 -3.96161,-2.72223 6.15268,-7.23714 z"
         style="font-style:normal;font-variant:normal;font-weight:bold;font-stretch:normal;font-family:'Roboto Mono';-inkscape-font-specification:'Roboto Mono Bold';letter-spacing:0px;word-spacing:0px;fill:#ffffff;stroke:none;stroke-width:4.00000048;stroke-linejoin:bevel;stroke-miterlimit:4;stroke-dasharray:none;stroke-opacity:1"
         id="path4159" />
      <path
         d="m 447.13963,196.66339 -4.7141,0 0,12.03977 -6.21907,0 0,-32.22409 10.80038,0 q 2.67796,0 4.84689,0.64183 2.16893,0.61969 3.69603,1.83695 1.54924,1.21725 2.36812,3.03207 0.84101,1.81482 0.84101,4.20507 0,1.72629 -0.42051,3.1206 -0.39837,1.37218 -1.17299,2.47877 -0.75248,1.08447 -1.83695,1.90335 -1.06233,0.81888 -2.39025,1.41644 l 6.9273,13.30129 0,0.28772 -6.66171,0 -6.06415,-12.03977 z m -4.7141,-5.04608 4.60344,0 q 2.6337,0 4.05014,-1.32792 1.43858,-1.35005 1.43858,-3.6739 0,-2.41238 -1.39431,-3.74029 -1.39432,-1.35005 -4.11654,-1.35005 l -4.58131,0 0,10.09216 z"
         style="font-style:normal;font-variant:normal;font-weight:bold;font-stretch:normal;font-family:'Roboto Mono';-inkscape-font-specification:'Roboto Mono Bold';letter-spacing:0px;word-spacing:0px;fill:#ffffff;stroke:none;stroke-width:4.00000048;stroke-linejoin:bevel;stroke-miterlimit:4;stroke-dasharray:none;stroke-opacity:1"
         id="path4161" />
      <path
         d="m 464.75665,176.47907 18.63508,0 0,5.02395 -6.28547,0 0,22.19832 6.28547,0 0,5.00182 -18.63508,0 0,-5.00182 6.13054,0 0,-22.19832 -6.13054,0 0,-5.02395 z"
         style="font-style:normal;font-variant:normal;font-weight:bold;font-stretch:normal;font-family:'Roboto Mono';-inkscape-font-specification:'Roboto Mono Bold';letter-spacing:0px;word-spacing:0px;fill:#ffffff;stroke:none;stroke-width:4.00000048;stroke-linejoin:bevel;stroke-miterlimit:4;stroke-dasharray:none;stroke-opacity:1"
         id="path4163" />
      <path
         d="m 507.29421,200.29302 q 0,-0.86314 -0.30984,-1.61563 -0.28772,-0.75248 -1.01807,-1.39431 -0.70823,-0.66396 -1.88122,-1.19512 -1.15086,-0.5533 -2.87715,-1.01807 -2.10253,-0.57543 -4.02801,-1.43858 -1.90334,-0.86314 -3.36405,-2.0804 -1.46071,-1.21725 -2.34599,-2.83288 -0.86314,-1.61564 -0.86314,-3.71817 0,-2.03614 0.86314,-3.69603 0.86315,-1.6599 2.39025,-2.83289 1.52711,-1.17299 3.60751,-1.79268 2.0804,-0.64183 4.51491,-0.64183 2.52304,0 4.60344,0.73035 2.10253,0.73036 3.6075,2.05827 1.50498,1.30579 2.34599,3.12061 0.84101,1.81481 0.84101,3.98374 l -6.06415,0 q -0.0443,-1.08446 -0.39837,-1.99187 -0.33198,-0.90741 -1.01807,-1.54924 -0.66396,-0.66395 -1.68203,-1.01806 -0.99593,-0.37625 -2.34598,-0.37625 -1.23939,0 -2.21319,0.30985 -0.95168,0.28771 -1.61563,0.84101 -0.66396,0.53117 -1.01807,1.28365 -0.33198,0.73036 -0.33198,1.5935 0,0.90741 0.44264,1.63777 0.46477,0.73035 1.32791,1.32791 0.86315,0.57543 2.0804,1.06233 1.23939,0.48691 2.78863,0.90741 2.21319,0.64183 4.07227,1.57137 1.85908,0.92954 3.187,2.21319 1.35005,1.26152 2.0804,2.89929 0.75249,1.61563 0.75249,3.6075 0,2.12466 -0.86315,3.78456 -0.84101,1.63776 -2.34598,2.78862 -1.50497,1.12873 -3.58538,1.72629 -2.0804,0.57543 -4.53704,0.57543 -1.5271,0 -3.05421,-0.28771 -1.50497,-0.26559 -2.89928,-0.84102 -1.37218,-0.57543 -2.5673,-1.43857 -1.19513,-0.86315 -2.0804,-2.01401 -0.86315,-1.15086 -1.37218,-2.61156 -0.48691,-1.46071 -0.48691,-3.23127 l 6.10842,0 q 0.0443,1.46071 0.50903,2.50091 0.46477,1.0402 1.28365,1.70416 0.84102,0.66396 1.99188,0.97381 1.17299,0.30984 2.5673,0.30984 1.23939,0 2.19106,-0.28771 0.9738,-0.28772 1.63776,-0.79675 0.66396,-0.50904 1.01807,-1.21726 0.35411,-0.73035 0.35411,-1.5935 z"
         style="font-style:normal;font-variant:normal;font-weight:bold;font-stretch:normal;font-family:'Roboto Mono';-inkscape-font-specification:'Roboto Mono Bold';letter-spacing:0px;word-spacing:0px;fill:#ffffff;stroke:none;stroke-width:4.00000048;stroke-linejoin:bevel;stroke-miterlimit:4;stroke-dasharray:none;stroke-opacity:1"
         id="path4165" />
      <path
         d="m 527.34574,195.46826 -3.40832,3.7403 0,9.4946 -6.2412,0 0,-32.22409 6.2412,0 0,14.76199 2.92142,-3.93948 7.8347,-10.82251 7.61338,0 -10.84464,14.25296 11.24302,17.97113 -7.39207,0 -7.96749,-13.2349 z"
         style="font-style:normal;font-variant:normal;font-weight:bold;font-stretch:normal;font-family:'Roboto Mono';-inkscape-font-specification:'Roboto Mono Bold';letter-spacing:0px;word-spacing:0px;fill:#ffffff;stroke:none;stroke-width:4.00000048;stroke-linejoin:bevel;stroke-miterlimit:4;stroke-dasharray:none;stroke-opacity:1"
         id="path4167" />
    </g>
  </g>
</svg>
