<?xml version="1.0" encoding="utf-8"?>
<!-- Generator: Adobe Illustrator 22.0.1, SVG Export Plug-In . SVG Version: 6.00 Build 0)  -->
<svg version="1.1" id="Layer_1" xmlns="http://www.w3.org/2000/svg" xmlns:xlink="http://www.w3.org/1999/xlink" x="0px" y="0px"
	 viewBox="0 0 249.9 249.9" style="enable-background:new 0 0 249.9 249.9;" xml:space="preserve">
<style type="text/css">
	.st0{display:none;fill:#FF8BFD;}
	.st1{fill:#FF8BFD;}
	.st2{fill:#999999;}
	.st3{display:none;fill:#A3A3A3;}
	.st4{fill:#757474;}
	.st5{fill:#AAAAAA;}
	.st6{fill:#7F7F7F;}
	.st7{fill:#5B5B5B;}
</style>
<g id="svg2" xmlns:cc="http://creativecommons.org/ns#" xmlns:dc="http://purl.org/dc/elements/1.1/" xmlns:rdf="http://www.w3.org/1999/02/22-rdf-syntax-ns#" xmlns:svg="http://www.w3.org/2000/svg">
	<g id="layer1" transform="translate(-155.4696,-191.61838)">
		<path id="edr" class="st0" d="M188,259.6c9.2-9.3,23.2-21.3,42.5-31.5c22.5-12,41.8-16,52-18c10.9-2.2,30.5-5.1,54.5-3
			c24.8,2.2,32.9,8,35.5,10c9.4,7.3,13.2,16.6,17,26.5c2.1,5.4,7.5,20.6,7.5,54.5c0,23.9,0,35.9-4.5,51.5c-2.8,9.8-9.6,32.2-30,52.5
			c-4.7,4.7-19.7,18.7-44,27c-26.7,9.1-49.1,5.9-58.5,4.5c-10.9-1.7-33.3-5.4-55.5-22.5c-5.6-4.3-22.8-18.4-34-43.5
			c-12.2-27.3-10.1-51.4-9.5-57c1.6-14.8,6-26.4,9.5-34"/>
		<path id="path3336_1_" class="st1" d="M272.4,194.6c12.7,1.7,27.7,11,48.6,10.6c3.8-0.1,11.4-0.5,17.1,4.2
			c5.6,4.6,4.1,9.7,9.6,13.7c6.7,4.8,12.9,0.4,18.8,3.9c7.8,4.5,7.2,17.9,7.4,27.3c0.7,31.7,10.5,30.9,15.5,82.5
			c1,9.9,2.1,24.9-6.4,34.4c-4.7,5.3-9.6,7.9-9.6,7.9c-8.1,4.4-13,2.4-16,6.6c-2.9,4.1,0.4,7.7-2.7,13.5c-2,3.7-5.1,5.6-7.7,7.1
			c-32.3,18.7-48.4,28-64.7,27.8c-19.8-0.3-20.9-9.4-53.3-12.5c-5.3-0.5-10.3-0.8-17.6-2.8c-8.1-2.2-22.1-6.1-32.1-19
			c-1.5-2-8.4-11.2-9.6-24.3c-0.8-7.9,0.9-12.7,1.8-18c3-19-6.2-33.6-8.9-41.7C148.8,274.8,225.5,188.2,272.4,194.6z"/>
		<path id="path3336" class="st2" d="M271,201.1c11.9,1.6,25.9,10.4,45.5,10c3.6-0.1,10.6-0.5,16,4c5.2,4.4,3.8,9.2,9,13
			c6.2,4.6,12,0.4,17.6,3.7c7.3,4.3,6.7,16.9,6.9,25.8c0.6,30,9.8,29.2,14.5,78c0.9,9.4,1.9,23.6-6,32.5c-4.4,5-9,7.5-9,7.5
			c-7.6,4.2-12.1,2.3-15,6.2c-2.7,3.8,0.4,7.3-2.5,12.8c-1.8,3.5-4.7,5.3-7.2,6.7c-30.2,17.7-45.3,26.5-60.5,26.3
			c-18.5-0.3-19.5-8.9-49.9-11.9c-5-0.5-9.7-0.7-16.4-2.6c-7.6-2.1-20.7-5.8-30-18c-1.4-1.9-7.8-10.6-9-23c-0.7-7.5,0.9-12,1.7-17.1
			c2.8-17.9-5.8-31.8-8.3-39.5C155.4,276.9,227.2,195.1,271,201.1z"/>
	</g>
	<path class="st3" d="M145,137.5"/>
</g>
<g id="Layer_2_1_">
</g>
<path class="st4" d="M34,78.5c-9.5,6.6-18.9,19-18,31.5c0.5,6.3,3.8,15.1,4.5,17c2,5.4,3.1,6.5,4.5,11c2,6.2,2.2,11,2.5,17.5
	c1.1,23.7,0.7,22.7,1,24.5c3.3,21.2,33.3,42.8,57.5,42.5c6.7-0.1,13.6-1.9,23.5,1.5c8.6,2.9,11.1,7,17,6.5c7.8-0.6,17.1-8.7,17-16
	C143.3,200,105.9,202,76,172c-4.4-4.4-30.4-30.5-26-59c3.4-22.3,23.4-33,19-40C65.1,66.9,46.3,70,34,78.5z"/>
<path class="st5" d="M70.5,37c-0.6-10.7,16.6-21.1,31-22c5.8-0.3,3.8,1.3,24,4.5c7.7,1.2,13.9,1.9,25,4c8,1.5,12.1,2.3,14,3.5
	c9.2,5.9,7,15.5,15,19c6.1,2.7,9.9-1.9,16,1.5c4.6,2.5,6.4,7.3,8,11.5c4.1,10.9,0.1,15,2.5,28c1.7,9.4,3.9,8,6.5,19.5
	c2.3,10.2,0.5,10.9,2.5,24.5c2.1,14.2,4.5,16.6,3.5,25c-0.6,5.2-1.4,11.8-6,15.5c-9.1,7.4-30.8,1.5-38.5-11.4
	c-5.1-8.6-0.1-13.7,0-39.1c0-17.2-0.1-27.7-6-39c-6.5-12.5-16.6-19.2-22.5-23c-8.2-5.4-21.5-14.1-37-12c-10.7,1.5-14,6.9-22.5,5
	C78.6,50.3,70.9,43.9,70.5,37z"/>
<path class="st6" d="M159,23c-3.6,3.3-1.6,10.4-1,12.5c2.4,8.6,9.3,13.5,15,17.5c9.8,6.9,17.7,7.8,19.5,8c4,0.4,8.2,0.8,11-2
	c3.8-3.8,3.1-11.9-0.5-14.5c-2.8-2-5.1,0.6-12-0.5c-2.4-0.4-7.6-1.2-11-5c-4.1-4.6-1.3-8.6-5-13C171.1,21.5,162.7,19.6,159,23z"/>
<path class="st6" d="M68.5,218c7.9-3.5,8-17.3,8-19c0.1-13.1-8.5-22-10-23.5c-4.6-4.6-10.6-6.8-22.5-11c-9.1-3.2-13.7-4.8-16.5-3
	c-5.9,3.9-3.3,17.9-1,25c6.2,18.8,22.9,26.6,28,29C59.5,217.8,64.2,219.9,68.5,218z"/>
<path class="st6" d="M216.5,167.5c-1.3-7.3-18.6-10.4-30.5-9.5c-6.2,0.5-13.3,1-18.5,6.5c-6.1,6.4-5.7,15.7-5.5,21
	c0.3,6.7,2.2,11.4,3.5,14.5c2.2,5.1,3.3,7.8,6,9c5,2.1,13-2,16-8c3.3-6.5-1.1-11.5,2.5-15.5c3.1-3.4,7.2-0.8,14-3.5
	C210.5,179.4,217.4,172.6,216.5,167.5z"/>
<path class="st6" d="M88.5,47.5c6.3-1,27.8-4.3,39,10.5c8.1,10.7,6.9,25.6,1.5,36c-0.4,0.8-10,18.5-30,19.5
	c-14.4,0.7-28-7.6-34-20.5c-6.1-13.2-3.7-30.2,6.5-39C77,49.3,83,48.3,88.5,47.5z"/>
<path class="st7" d="M31.5,164c-1.2,2.2-2.9,6-3.2,11c-0.4,6.3,1.8,10.9,3.5,14.6c3.5,7.4,8.3,11.7,12.3,15.4
	c5.6,5,10.9,9.8,17.9,9.5c1.5-0.1,4.6-0.2,7-2.5c2.6-2.4,4.1-6.8,2.5-9c-2.4-3.3-9.3,2.1-17.7-1c-6.8-2.5-10.3-8.8-11.3-10.5
	c-3.8-6.7-1.8-10.7-6-19.5C34.8,168.3,32.8,165.6,31.5,164z"/>
<path class="st7" d="M80,52c-1.5-1.6-10.4,2-14.3,9.3c-2.6,4.8-2.2,9.5-1.7,15.2c0.4,4.3,0.8,9.6,4,15.5c6.5,11.9,18.5,15.6,20,16
	c7.3,2.1,13.5,1.1,16,0.5c4.8-1,8.1-2.9,10-4c5.8-3.3,11.8-8.7,11-10c-0.8-1.5-8.6,3.6-22.5,5c-9.6,1-13.5-0.6-14.7-1.2
	c-6.5-3-9.5-8.7-10.8-11.3c-5.3-10.1-3-20.1-2.6-21.7C76.5,57,81.2,53.3,80,52z"/>
<path class="st7" d="M160.3,25.5c-1,0.3-0.9,9.3,4.2,16.5c3.9,5.5,9.2,7.9,16,11c5.5,2.5,9.2,3.2,12,3.5c4.3,0.4,9.5,0.1,9.6-1
	c0-0.3-0.4-1-9.1-4c-8.6-3-9-2.7-12-4c-1.2-0.5-7.2-3.3-12.5-9C162.3,31.7,161.1,25.2,160.3,25.5z"/>
<path class="st7" d="M175.3,161.9c-4.3,2.1-6.6,5.2-8.3,7.6c-2.1,2.9-4.9,6.7-5.1,12c0,1.3,0,3.3,4.7,13.5
	c3.3,7.3,5.4,11.8,6.4,11.5c1.1-0.3,0-7.6-0.5-11c-0.9-6.1-1.7-7-1.8-10.5c0-1.1-0.1-6.5,2.3-11.5c4.4-9.1,14.2-11.3,13.5-13
	C186,159.2,180.1,159.6,175.3,161.9z"/>
</svg>
