<?xml version="1.0" encoding="utf-8"?>
<!-- Generator: Adobe Illustrator 22.0.1, SVG Export Plug-In . SVG Version: 6.00 Build 0)  -->
<svg version="1.1" xmlns="http://www.w3.org/2000/svg" xmlns:xlink="http://www.w3.org/1999/xlink" x="0px" y="0px"
	 viewBox="0 0 249.9 249.9" style="enable-background:new 0 0 249.9 249.9;" xml:space="preserve">
<style type="text/css">
	.st0{display:none;fill:#FF7BFF;}
	.st1{fill:#FF7BFF;}
	.st2{fill:#9E9996;}
	.st3{fill:#A5A5A5;}
	.st4{display:none;}
	.st5{display:inline;opacity:0.8;fill:#121403;}
	.st6{display:inline;fill:#212121;}
	.st7{display:inline;fill:#3F3F3F;}
	.st8{display:inline;fill:#FFFFFF;}
	.st9{display:inline;fill:#121403;}
	.st10{fill:#1C1C1C;}
	.st11{display:inline;}
	.st12{fill:#827F7E;}
	.st13{fill:#686868;}
	.st14{fill:#707070;}
	.st15{display:none;fill:none;stroke:#666666;stroke-miterlimit:10;}
	.st16{fill:#8E8E8E;}
</style>
<g id="svg2" xmlns:cc="http://creativecommons.org/ns#" xmlns:dc="http://purl.org/dc/elements/1.1/" xmlns:rdf="http://www.w3.org/1999/02/22-rdf-syntax-ns#" xmlns:svg="http://www.w3.org/2000/svg">
	<g id="layer1" transform="translate(-155.4696,-191.61838)">
		<path id="path3336-7" class="st0" d="M307.5,203.6c69,0,97.9,43.9,97.9,112.9s-55.9,124.9-124.9,124.9s-142.9-58.3-124.9-124.9
			C176.2,239.6,238.5,203.6,307.5,203.6z"/>
		<path id="path3336_1_" class="st1" d="M276.7,222.6c51.5-17.8,77.5-26.7,88.6-20.9c22.3,11.5,31.5,48,23.8,73
			c-1.6,5.3-2.2,4.3-7,14.6c-18.2,39.2-8.8,52.8-23.5,75.1c-11.6,17.6-18.1,10.1-32.9,31.6c-10,14.5-13,26.4-26.6,33
			c-7.9,3.9-15.6,4.1-19.6,4.2c-13.7,0.4-17.8-4.6-33.9-7.8c-17.3-3.4-19.2,1.6-32.6-2.1c-4.8-1.3-20.2-5.8-32.8-18.5
			c-21.8-21.9-20.7-54-20.2-68.8c0.9-26.4,1.9-38.3,6.8-46.7c3.2-5.4,6.3-8.7,10.7-13.2c11.7-12,26.4-22.7,52.5-35.1
			C242.3,235.2,254.3,230.3,276.7,222.6z"/>
		<path id="path3336_2_" class="st2" d="M276.5,227.6c49-17.1,73.7-25.6,84.3-20c21.2,11.1,30,46,22.7,70c-1.6,5.1-2.1,4.1-6.7,14
			c-17.3,37.6-8.3,50.6-22.3,72c-11,16.9-17.2,9.7-31.3,30.3c-9.6,13.9-12.3,25.3-25.3,31.7c-7.5,3.7-14.9,3.9-18.6,4
			c-13.1,0.4-16.9-4.4-32.2-7.5c-16.4-3.3-18.2,1.6-31-2c-4.5-1.3-19.3-5.6-31.3-17.8c-20.7-21-19.7-51.7-19.3-66
			c0.8-25.3,1.8-36.7,6.5-44.8c3-5.2,6-8.3,10.2-12.7c11.1-11.5,25.1-21.8,50-33.7C243.8,239.7,255.2,235.1,276.5,227.6z"/>
	</g>
	<path class="st3" d="M179.3,22.3c5.4-2.6,10.2-4.8,16.7-4.3c9.6,0.8,15.9,7.2,18,9.3c8.3,8.4,10,19.1,12,31c1,5.8,1.4,8.8,1.2,12.1
		c-1.1,12.8-9.3,16.8-15.8,30.6c-1.2,2.5-2.9,10.3-6.4,25.8c-2.6,11.8-5.8,23.4-8.6,35.2c-1.6,6.7-2.2,9.4-4.7,12.7
		c-5.3,7-11.4,6.1-19.3,11.7c-3.1,2.2-7,8.3-14.7,20.3c-12.1,19-13.3,22.6-19,25.3c-6.2,2.9-12.5,2.3-19.7,1.7
		c-4.5-0.4-4.8-1-21-5.3c-11.7-3.1-14.9-3.7-15-5.3c-0.2-2.6,8-5.7,14-7c12-2.6,16,1.4,23.7-1c6.8-2.1,10.5-7.6,17.7-18.7
		c10-15.3,13-29.3,13.7-32.7c2.7-13.7-0.6-13.8,1.7-25.7c3.2-16.6,12.2-28.8,19.7-39c13.1-17.9,21.8-21.6,20.3-30
		c-0.8-4.4-5.5-9-15-18c-10.4-9.9-14.9-11.7-14.7-16C164.3,29.4,172.5,25.6,179.3,22.3z"/>
	<g class="st4">
		<path class="st5" d="M96.9,99c-2.3,1.6-2.8,6-3.6,14.6c-0.6,6.4-0.3,8.2,0,9.2c0.8,3.3,3.4,9.6,7.2,9.8c3.8,0.1,6.8-6.1,7.8-8.1
			c0.9-2,1.3-3.4,2.4-15.7c0.6-6.3,0.6-7.5-0.5-8.7C107.5,96.9,100.6,96.4,96.9,99z"/>
		<path class="st5" d="M116.1,101.4c-2.3,1.6-2.8,6-3.6,14.6c-0.6,6.4-0.3,8.2,0,9.2c0.8,3.3,3.4,9.6,7.2,9.8
			c3.8,0.1,6.8-6.1,7.8-8.1c0.9-2,1.3-3.4,2.4-15.7c0.6-6.3,0.6-7.5-0.5-8.7C126.7,99.3,119.8,98.7,116.1,101.4z"/>
		<path class="st6" d="M96.8,98.8c-1.9,1.5-2.3,5.5-3,13.5c-0.5,5.9-0.2,7.5,0,8.5c0.7,3.1,2.9,8.9,6,9c3.2,0.1,5.7-5.7,6.5-7.5
			c0.8-1.8,1.1-3.1,2-14.5c0.5-5.8,0.5-6.9-0.4-8.1C105.7,96.8,99.8,96.3,96.8,98.8z"/>
		<path class="st6" d="M115.9,101.3c-1.9,1.5-2.3,5.5-3,13.5c-0.5,5.9-0.2,7.5,0,8.5c0.7,3.1,2.9,8.9,6,9c3.2,0.1,5.7-5.7,6.5-7.5
			c0.8-1.8,1.1-3.1,2-14.5c0.5-5.8,0.5-6.9-0.4-8.1C124.8,99.3,119,98.8,115.9,101.3z"/>
		<path class="st7" d="M99.1,100.8c1.2-0.2,2.3,1.1,2.4,1.3c3.2,3.7-3,10.3-1,17c0.1,0.2,0.7,2.4,0.5,5.2c-0.1,1-0.3,2.5-1.1,2.8
			c-0.9,0.4-2.3-1.1-2.7-1.5C92.5,120.5,94.5,101.4,99.1,100.8z"/>
		<path class="st7" d="M119,102.8c1.2-0.2,2.3,1.1,2.4,1.3c3.2,3.7-3,10.3-1,17c0.1,0.2,0.7,2.4,0.5,5.2c-0.1,1-0.3,2.5-1.1,2.8
			c-0.9,0.4-2.3-1.1-2.7-1.5C112.4,122.5,114.4,103.4,119,102.8z"/>
		<path class="st8" d="M97,107.3c-1.3-0.9-1.2-4.7,1-6.5c2.1-1.7,5-0.7,5.5-0.5c0.7,0.2,2.4,0.8,3.3,2.5c1.1,2.1,0.6,5.2-0.8,5.8
			c-1.2,0.5-2.1-1.5-4.8-1.8C98.9,106.6,98,108,97,107.3z"/>
		<path class="st8" d="M116.4,109.7c-1.3-0.9-1.2-4.7,1-6.5c2.1-1.7,5-0.7,5.5-0.5c0.7,0.2,2.4,0.8,3.3,2.5c1.1,2.1,0.6,5.2-0.8,5.8
			c-1.2,0.5-2.1-1.5-4.8-1.8C118.3,109,117.3,110.4,116.4,109.7z"/>
		<path d="M144.8,156c0-1.8,0-3.4,0.9-5.2c2.8-5.3,11.7-8,16.8-4.6c3.4,2.2,3.7,6.7,4.3,15.8c0.4,5.5-0.4,7.5-1.8,8.8
			c-1.5,1.3-3.6,1.6-5.3,1.8c-0.8,0.1-3.5,0.4-6-0.5C147.6,169.9,144.8,161.9,144.8,156z"/>
		<path class="st9" d="M-18.3,8"/>
		<path class="st10" d="M161.5,165.3c0.9-2.5,0.5-4.7,0-7.8c-0.6-3.2-1-5.7-3-7.5c-2-1.8-4.3-1.8-4.3-2.3c0.1-0.6,3.8-1.4,6.5,0.3
			c2.7,1.7,3.3,5.1,4,9.5c0.6,3.9,1,6.1-0.3,8.5c-2,3.9-6.9,5.2-7.3,4.8C157,170.3,160.1,168.9,161.5,165.3z"/>
		<path class="st11" d="M84.2,152.5c0.7-1.2,2.1-0.3,5.8,0c2.6,0.2,2.6-0.2,5.6,0c2.4,0.2,3.4,0.5,5.3,0.8
			c7.5,1.1,11.3-1.1,12.1,1.2c0.3,1,0,2.3-0.5,3c-0.7,1.1-1.9,1-5.6,0.3c-2.7-0.5-4.1-0.8-6-1.3c-3.7-0.9-3.7-1.1-5.3-1.3
			c-2.5-0.4-3.8-0.6-5.6-0.3c-3.2,0.5-4.7,2.2-5.6,1C83.8,155.1,83.7,153.4,84.2,152.5z"/>
	</g>
	<path class="st12" d="M225.3,66c-6.4-9.7-24.8-6-26.3-5.7c-8.3,1.8-13.6,6.1-19.3,10.7c-4.5,3.6-12.8,10.4-18.7,22.7
		c-5.9,12.3-6,23.2-6,28c0,6.1,0,12.1,3,19.3c5,12,14.4,18,20.3,21.7c6.1,3.9,10,6.3,14,5c5.3-1.7,7.2-8.9,9.7-18.3
		c3.9-15.4,0.7-17.7,4.7-29.3c2.8-8.2,7.3-15.6,10-20c4.7-7.6,6.8-9.4,8.7-15C226.7,80.9,229.5,72.2,225.3,66z"/>
	<path class="st13" d="M218,65c-0.2-1.1-11.2-2-22.7,2c-3.4,1.2-12.2,4.4-19.7,12.7c-2.4,2.7-4.4,6.3-8.3,13.3c-5.3,9.6-8,14.4-9,20
		c-1.5,8.4,0.3,15.2,1,17.7c2.4,8.2,6.9,13.3,9.7,16.3c6.9,7.6,15.6,12.5,16.3,11.7c0.3-0.4-0.8-1.5-5.3-7.7c-3.8-5.2-5.7-7.7-7-10
		c-1.3-2.2-3.9-6.8-5.1-13.3c-0.3-1.7-1.3-7.7,0.2-15.3c1.3-6.5,3.8-10.8,6.2-15c6.2-10.8,13.7-16.8,16-18.7
		c3.6-2.8,6.8-4.6,8.7-5.7C210.2,66.7,218.2,66,218,65z"/>
	<path class="st14" d="M135,36.3c-9.8,2.5-14.6,3.7-19,5.3C96.7,48.9,86.2,52.8,72,61c-9.8,5.6-22.3,12.9-36,26
		c-8.9,8.5-13.4,12.8-17,19.3c-6.8,12.2-6.1,27.9-4.7,59.3c0.4,8.1,0.9,15.3,4.8,23.5c3.6,7.7,8.6,13,11.6,16.2
		c6.4,6.8,12.6,10.8,15.7,12.7c8.2,4.9,15.7,9.3,20.7,6.3c3.7-2.2,5.3-8.2,4.3-13c-1.8-9.3-12.3-10.1-21-21.3c0,0-6.6-8.6-8.3-20
		c-3.3-22,13.4-41.6,20.3-49.7c9.9-11.6,13.7-10.5,22.7-23C95.8,82.4,91.8,79,99.3,71.7c14.9-14.5,34-4.5,45.7-19.7
		c4.5-5.8,7-14.2,4.3-17C147.9,33.5,145.2,33.7,135,36.3z"/>
	<path class="st15" d="M105.7,119c-14.5-0.6-29.2,7.3-36.7,20.3c-1.6,2.9-7.8,13.9-4.3,27.7c3.1,12.3,12.8,22.8,25.7,26.3
		c20.6,5.7,36.2-10.1,37.3-11.3c12.3-12.9,10.9-29.5,10.3-33.7c-0.5-4.1-1.6-11.6-7.3-18.3C121.8,119.7,108.7,119.1,105.7,119z"/>
	<path class="st16" d="M76.7,204.7c-2.6-7.9,5.7-21.7,18.3-24c11.4-2,19.6,6.5,20,7c5.6,6.1,8.7,16.1,5,22
		C112.9,221,80.6,217,76.7,204.7z"/>
	<path class="st16" d="M-56,60"/>
</g>
<g id="Layer_2">
</g>
</svg>
