<?xml version="1.0" encoding="utf-8"?>
<!-- Generator: Adobe Illustrator 22.0.1, SVG Export Plug-In . SVG Version: 6.00 Build 0)  -->
<svg version="1.1" xmlns="http://www.w3.org/2000/svg" xmlns:xlink="http://www.w3.org/1999/xlink" x="0px" y="0px"
	 viewBox="0 0 249.9 249.9" style="enable-background:new 0 0 249.9 249.9;" xml:space="preserve">
<style type="text/css">
	.st0{display:none;fill:#FF7BFF;}
	.st1{fill:#FF7BFF;}
	.st2{fill:#9E9996;}
	.st3{fill:#7A7978;}
	.st4{fill:#B7B7B7;}
	.st5{display:none;}
	.st6{display:inline;opacity:0.8;fill:#121403;}
	.st7{display:inline;fill:#212121;}
	.st8{display:inline;fill:#3F3F3F;}
	.st9{display:inline;fill:#FFFFFF;}
	.st10{display:inline;}
	.st11{display:inline;fill:#121403;}
	.st12{display:inline;fill:#1C1C1C;}
	.st13{fill:#7F7F7F;}
	.st14{fill:#898888;}
	.st15{fill:#706F6F;}
	.st16{fill:#898989;}
	.st17{fill:#707070;}
</style>
<g id="svg2" xmlns:cc="http://creativecommons.org/ns#" xmlns:dc="http://purl.org/dc/elements/1.1/" xmlns:rdf="http://www.w3.org/1999/02/22-rdf-syntax-ns#" xmlns:svg="http://www.w3.org/2000/svg">
	<g id="layer1" transform="translate(-155.4696,-191.61838)">
		<path id="path3336-7" class="st0" d="M307.5,203.6c69,0,97.9,43.9,97.9,112.9s-55.9,124.9-124.9,124.9s-142.9-58.3-124.9-124.9
			C176.2,239.6,238.5,203.6,307.5,203.6z"/>
		<path id="path3336" class="st1" d="M219,197.5c25.7-2.4,44.5,14.4,51,6.8c2.9-3.4-0.4-7.3,2.9-10.5c6.3-6.3,19.4,7.4,38.4,3.2
			c6.7-1.5,11.5-4.6,17.1-2.1c3.6,1.6,4.1,4,8.7,7.4c5.8,4.5,11.4,5.5,14.2,6.3c17.7,5.4,39.9,40.8,31.6,61.8
			c-1.8,4.6-6,10.6-3.4,14.5c1.7,2.6,5,2,8.2,3.2c10.5,3.7,12.7,22.8,16.3,57.9c1,9.2,1.1,13.6-0.3,19.1
			c-2.6,10.5-7.7,12.5-7.1,19.5c0.8,8.8,9.3,11,8.7,18.2c-0.5,6.3-7.7,10.5-11.3,12.6c-13.4,7.8-29.3,5.3-41.3,3.4
			c-5.2-0.8-5.2-1.2-9.2-1.6c-6.6-0.6-22.6-2.2-28.4,6.1c-3.3,4.6,0,0-4.5,12.4c-1.8,5-10.5,5.2-13.7,2.6c-2.4-1.9-1.1-4.8-3.7-7.4
			c-2.7-2.7-6.3-1.4-10-2.1c-11.4-2-13-20-20.5-20.3c-5-0.2-5.4,7.7-13.4,12.4c-9.5,5.5-21,1.1-32.6-2.1
			c-4.8-1.3-20.3-5.9-32.9-18.7C162,378,163,345.7,163.5,330.6c0.9-26.6,8.9-25.6,6.8-47.1c-2.3-23.6-13-35-6.1-50.8
			c3-6.9,7.8-10.8,14.7-16.6C184.3,211.8,199.1,199.3,219,197.5z"/>
		<path id="path3336_1_" class="st2" d="M222.2,203.9c24.4-2.3,42.3,13.7,48.5,6.5c2.8-3.2-0.4-6.9,2.8-10c6-6,18.4,7,36.5,3
			c6.4-1.4,10.9-4.4,16.3-2c3.4,1.5,3.9,3.8,8.2,7.1c5.6,4.2,10.9,5.2,13.5,6c16.8,5.1,37.9,38.8,30,58.7
			c-1.7,4.4-5.7,10.1-3.3,13.8c1.6,2.5,4.7,1.9,7.8,3c10,3.5,12.1,21.7,15.5,55c0.9,8.8,1.1,12.9-0.2,18.2
			c-2.5,9.9-7.3,11.9-6.8,18.6c0.7,8.4,8.8,10.5,8.3,17.3c-0.5,6-7.3,10-10.8,12c-12.7,7.4-27.9,5-39.3,3.3c-4.9-0.8-5-1.1-8.8-1.5
			c-6.2-0.6-21.5-2-27,5.8c-3.1,4.4,0,0-4.3,11.8c-1.7,4.7-10,4.9-13,2.5c-2.3-1.8-1-4.6-3.5-7c-2.6-2.6-6-1.4-9.5-2
			c-10.8-1.9-12.3-19-19.5-19.3c-4.8-0.2-5.1,7.3-12.8,11.8c-9,5.2-20,1.1-31-2c-4.5-1.3-19.3-5.6-31.3-17.8
			c-20.7-21-19.7-51.7-19.3-66c0.8-25.3,8.5-24.3,6.5-44.8c-2.2-22.4-12.3-33.3-5.8-48.3c2.9-6.6,7.4-10.3,14-15.8
			C189.2,217.5,203.3,205.6,222.2,203.9z"/>
	</g>
	<path class="st3" d="M42.5,27c-12,4.9-17.3,10.8-18.5,12.3c-2.2,2.5-5.7,6.7-7,13c-0.8,3.9-0.2,5.9,2.5,18.8
		c3.1,15,3.7,19.6,4,21.8c0.8,6.8,2.1,10.5,1,15.5c-0.9,4.3-2.6,6.5-4,9.3c-4.4,8.5-4,16.9-3.5,28.5c0.3,6.1,0.8,15.8,5.5,27.3
		c5.1,12.4,12.2,20.2,17.5,25.8c1.9,2,9.3,9.7,21.3,17c9.9,6,14.9,9.1,19.5,8c8.3-1.9,9.3-11.9,21.3-15.8c4.7-1.5,7.4-0.9,7.8-2.3
		c0.9-3.5-18.1-6.7-33.5-21c-3.1-2.9-18.7-17.4-18.8-36.5c0-11.6,5.7-12,6-23.8C63.9,107.8,52.2,105,49.3,85
		C47,69.4,52,56.1,53.5,52.3C60.6,34,72.8,27.2,70.3,23C67.2,18.1,48.9,24.4,42.5,27z"/>
	<path class="st4" d="M97.5,19.5c1.4-1.9,12.5,6.3,17.8,2c3.7-3,1.7-9.9,5.5-11.5c1.8-0.8,3.7,0.2,5.9,1.1c4.1,1.7,8.7,2.1,17.9,2.9
		c14.1,1.3,16-4.5,23.4-1.4c5.8,2.4,5,6.1,13.1,10.9c6.5,3.9,8.5,2.4,14.3,5.3c11.1,5.4,16.1,16.9,20.5,27c3.9,9,5.9,13.5,5.3,19.8
		c-1.1,10.5-8.2,14.4-6.1,20.3c2.3,6.3,11,3.5,15.5,11.1c1.8,3.1,0.8,4.4,2.8,21c0.1,0.8,0.5,4.1,1,7.5c3.2,21.7,6.7,24.6,4.3,31.5
		c-2,5.8-5,5.1-7.5,12.8c-1.2,3.6-3,9-1,14.5c2.3,6.4,7.6,6.8,8,11.8c0.4,4.9-4.6,9-5.8,10c-3.1,2.6-7.6,4.5-21.8,4.5
		c-7.9,0-16.8,0-29.3-2.3c-8.6-1.5-12.1-2.9-18-1.5c-1.4,0.3-11.1,2.8-12.8,9.3c-0.8,3.2,1,5.3-0.3,6.5c-2.2,2.2-11.2-0.4-14.5-6.3
		c-4.4-7.8,2.1-20.6,10.5-27c3.3-2.5,4.8-2.5,18.8-6.8c16.1-4.9,24.3-7.5,29-11c3-2.3,11.5-8.8,14.3-20.3c2.7-11.4-1.8-21.1-3-23.5
		c-9.4-19.3-29-16.5-33-31c-3-10.7,6.9-14.8,4.8-31.3c-0.5-3.8-1.9-14.9-10-21.8c-10.8-9.2-21.4-0.8-40-7.3
		C107.2,39.6,95.9,21.8,97.5,19.5z"/>
	<g class="st5">
		<path class="st6" d="M96.9,99c-2.3,1.6-2.8,6-3.6,14.6c-0.6,6.4-0.3,8.2,0,9.2c0.8,3.3,3.4,9.6,7.2,9.8c3.8,0.1,6.8-6.1,7.8-8.1
			c0.9-2,1.3-3.4,2.4-15.7c0.6-6.3,0.6-7.5-0.5-8.7C107.5,96.9,100.6,96.4,96.9,99z"/>
		<path class="st6" d="M134.9,101.4c-2.3,1.6-2.8,6-3.6,14.6c-0.6,6.4-0.3,8.2,0,9.2c0.8,3.3,3.4,9.6,7.2,9.8
			c3.8,0.1,6.8-6.1,7.8-8.1c0.9-2,1.3-3.4,2.4-15.7c0.6-6.3,0.6-7.5-0.5-8.7C145.6,99.3,138.6,98.7,134.9,101.4z"/>
		<path class="st7" d="M96.8,98.8c-1.9,1.5-2.3,5.5-3,13.5c-0.5,5.9-0.2,7.5,0,8.5c0.7,3.1,2.9,8.9,6,9c3.2,0.1,5.7-5.7,6.5-7.5
			c0.8-1.8,1.1-3.1,2-14.5c0.5-5.8,0.5-6.9-0.4-8.1C105.7,96.8,99.8,96.3,96.8,98.8z"/>
		<path class="st7" d="M134.3,101.3c-1.9,1.5-2.3,5.5-3,13.5c-0.5,5.9-0.2,7.5,0,8.5c0.7,3.1,2.9,8.9,6,9c3.2,0.1,5.7-5.7,6.5-7.5
			c0.8-1.8,1.1-3.1,2-14.5c0.5-5.8,0.5-6.9-0.4-8.1C143.2,99.3,137.4,98.8,134.3,101.3z"/>
		<path class="st8" d="M99.1,100.8c1.2-0.2,2.3,1.1,2.4,1.3c3.2,3.7-3,10.3-1,17c0.1,0.2,0.7,2.4,0.5,5.2c-0.1,1-0.3,2.5-1.1,2.8
			c-0.9,0.4-2.3-1.1-2.7-1.5C92.5,120.5,94.5,101.4,99.1,100.8z"/>
		<path class="st8" d="M137.4,102.8c1.2-0.2,2.3,1.1,2.4,1.3c3.2,3.7-3,10.3-1,17c0.1,0.2,0.7,2.4,0.5,5.2c-0.1,1-0.3,2.5-1.1,2.8
			c-0.9,0.4-2.3-1.1-2.7-1.5C130.8,122.5,132.8,103.4,137.4,102.8z"/>
		<path class="st9" d="M97,107.3c-1.3-0.9-1.2-4.7,1-6.5c2.1-1.7,5-0.7,5.5-0.5c0.7,0.2,2.4,0.8,3.3,2.5c1.1,2.1,0.6,5.2-0.8,5.8
			c-1.2,0.5-2.1-1.5-4.8-1.8C98.9,106.6,98,108,97,107.3z"/>
		<path class="st9" d="M134.8,109.7c-1.3-0.9-1.2-4.7,1-6.5c2.1-1.7,5-0.7,5.5-0.5c0.7,0.2,2.4,0.8,3.3,2.5c1.1,2.1,0.6,5.2-0.8,5.8
			c-1.2,0.5-2.1-1.5-4.8-1.8C136.7,109,135.7,110.4,134.8,109.7z"/>
		<path class="st10" d="M144.8,156c0-1.8,0-3.4,0.9-5.2c2.8-5.3,11.7-8,16.8-4.6c3.4,2.2,3.7,6.7,4.3,15.8c0.4,5.5-0.4,7.5-1.8,8.8
			c-1.5,1.3-3.6,1.6-5.3,1.8c-0.8,0.1-3.5,0.4-6-0.5C147.6,169.9,144.8,161.9,144.8,156z"/>
		<path class="st11" d="M-18.3,8"/>
		<path class="st12" d="M161.5,165.3c0.9-2.5,0.5-4.7,0-7.8c-0.6-3.2-1-5.7-3-7.5c-2-1.8-4.3-1.8-4.3-2.3c0.1-0.6,3.8-1.4,6.5,0.3
			c2.7,1.7,3.3,5.1,4,9.5c0.6,3.9,1,6.1-0.3,8.5c-2,3.9-6.9,5.2-7.3,4.8C157,170.3,160.1,168.9,161.5,165.3z"/>
	</g>
	<path class="st13" d="M74.5,16.3c-1.6,2.3,2.5,7.5,4.8,10.5c3.5,4.6,10.5,13.7,23.5,17.8c9.8,3.1,17.9,1.6,25.8,0.3
		c5-0.9,15.5-2.8,26.3-10.3c9.1-6.3,18.9-16.8,16.8-20.5c-0.6-1.1-2.1-1.3-4.8-1.6c-6.8-0.8-10.1,1.6-16.2,2.6
		c-7.2,1.1-13.3-0.5-16.3-1.3c-7.5-2-12-5.3-13.5-3.8c-1.2,1.3,1.6,4.1,0.3,7.8c-1.1,2.9-4.1,4.3-5.8,5c-2.7,1.2-5.4,1.5-8.3,1.3
		c-6.5-0.5-8.8-3.1-16-5.8C89.5,17.7,76.7,13,74.5,16.3z"/>
	<path class="st13" d="M-45.5,35.3"/>
	<path class="st14" d="M54.5,80.3c9.5-1.8,17.6,3.7,20.3,5.5c8.7,5.9,12,14.3,13.8,19c2.1,5.4,5,13.1,2.5,22.5
		c-0.6,2.4-3.5,12.1-13.3,18c-9.3,5.6-20.8,5.3-29.3,1c-14.9-7.6-18.7-26.8-15.8-40.3C34.8,97,41.6,82.7,54.5,80.3z"/>
	<path class="st14" d="M207.3,65.5c-2.6,2-6.6,5.1-9.8,10.8c-2.4,4.4-3.1,8.1-3.8,11.5c-0.9,5-2.1,11.7,0.3,19.8
		c0.6,2.2,3.5,11.2,12.3,18c6.1,4.7,11.8,5.9,14,6.3c3,0.5,6,0.9,8.8-0.8c4-2.4,4.7-7.4,5-9.3c1-6.5-1.7-14.3-7.3-18.8
		c-5.4-4.3-9.5-2.4-11.5-6.3c-1.1-2.2,0.1-6.7,2.8-15.5c1.6-5.5,2.5-7.4,2.5-11c0-2.5,0.1-8.1-2.8-9.5
		C215.2,59.5,211.5,62.3,207.3,65.5z"/>
	<path class="st15" d="M57.5,82.8c-0.8-1.2-7.1,0.8-12,4.8c-5,4-7.2,8.9-8.3,11.5c-0.5,1.3-2.4,5.8-2.8,12.3
		c-0.2,3.5-0.6,13.3,5.8,22.8c2,3,5.9,8.9,13.8,11.8c2.2,0.8,8.3,2.7,15.5,0.5c6.8-2.1,12.1-7.1,11.5-8.3
		c-0.8-1.7-12.1,6.5-22.3,2.2c-4.9-2-7.6-6.2-10.2-10c-1.6-2.5-5.7-8.8-5.8-17.8c0-5.4,1.5-9.4,2-10.8c1.3-3.3,2.9-5.6,6-9.8
		C55.5,85.5,58.1,83.6,57.5,82.8z"/>
	<path class="st16" d="M159.3,120.5c-3.1,0.3-14,1.8-25,9.8c-11.5,8.3-16.3,18.8-17.5,21.5c-6.9,15.9-3.4,30.2-2.3,34.5
		c1.9,7.1,4.6,17.7,14.3,24.3c8.6,5.8,17.9,5.1,28.3,4.3c7.1-0.6,19.4-1.5,31.8-10.3c4.8-3.4,16.7-11.8,20.3-27.3
		c3.7-16-3.9-29.3-7.5-35.8c-2.7-4.7-5.8-10.2-12.3-14.8C177.6,118.5,164.4,119.9,159.3,120.5z"/>
	<path class="st17" d="M139.8,130.8c-3.4,2.1-8.1,5-12.5,10.5c-4.6,5.8-6.5,11.3-7.8,15.3c-2.8,8.8-2.8,16.1-2.8,19
		c0.2,7.1,0.5,16.6,7.3,25c1.5,1.9,6.3,7.4,14.5,10.3c1.4,0.5,5.8,1.9,15.8,1.3c13.4-0.9,24.9-4.8,24.8-5.8c-0.2-1.1-13.7,4-30.5,0
		c-6.8-1.6-17.7-4.3-23.5-13.8c-6.4-10.6-2.4-23.2-0.8-28.5c3-9.4,8.4-15.6,14.3-22.5c9-10.5,16.6-15.2,15.8-16.5
		C153.4,123.7,145.4,127.3,139.8,130.8z"/>
</g>
<g id="Layer_2">
</g>
</svg>
