<?xml version="1.0" encoding="utf-8"?>
<!-- Generator: Adobe Illustrator 22.0.1, SVG Export Plug-In . SVG Version: 6.00 Build 0)  -->
<svg version="1.1"
	 id="svg2" xmlns:cc="http://creativecommons.org/ns#" xmlns:dc="http://purl.org/dc/elements/1.1/" xmlns:rdf="http://www.w3.org/1999/02/22-rdf-syntax-ns#" xmlns:svg="http://www.w3.org/2000/svg"
	 xmlns="http://www.w3.org/2000/svg" xmlns:xlink="http://www.w3.org/1999/xlink" x="0px" y="0px" viewBox="0 0 249.9 249.9"
	 style="enable-background:new 0 0 249.9 249.9;" xml:space="preserve">
<style type="text/css">
	.st0{fill:#DECD87;}
	.st1{fill:#FFE680;}
	.st2{fill:#FFEE94;}
	.st3{fill:#EFD66A;}
	.st4{fill:#E2CD74;}
	.st5{fill:#D3B659;}
</style>
<g id="layer1" transform="translate(-155.4696,-191.61838)">
	<circle id="path3336-7" class="st0" cx="280.4" cy="316.5" r="124.9"/>
	<circle id="path3336" class="st1" cx="280.2" cy="315.6" r="112"/>
	<path id="path4219" class="st2" d="M328.5,290.6c-7-7.4-23.1-22.1-48-28c-45.2-10.7-81.1,16.5-86.2,20.5c2.5-8.8,10-30.6,31.2-47.5
		c33.3-26.6,73-19.2,79-18c7,1.7,18.3,5.5,30,14c12.1,8.8,19.2,18.8,23,25c13.8,14,18.9,27.7,21,36c9.3,36.7-11,79.6-51,108.6
		c5.3-8.4,19.8-33.9,16-67.6C341.3,313.8,333.7,299,328.5,290.6z"/>
</g>
<path class="st3" d="M23.3,102c-6.8,1.7-3.2,37.4,2.1,60.7c4.3,18.9,8.9,26.8,11.7,31c8.6,12.7,19.3,19.6,27.1,24.5
	c5.7,3.6,16.5,9.8,30.6,13.7c42.5,11.8,85.2-5.6,84.7-10.2c-0.3-2.3-11.9-3-25.4-3.8c-18.4-1.1-21.5,1.3-32.9-1.1
	c-12.9-2.7-21.6-8.4-24.5-10.4c-7.9-5.4-12.8-11.5-20-21.8c-12.1-17.3-19.5-30.7-27.1-44C34.1,114.4,26.5,101.2,23.3,102z"/>
<path class="st4" d="M105,44c-13.6-0.1-24.1,11.4-28,22c-1,2.8-6.1,17.9,3,28c8.8,9.8,23.6,6.9,28,6c3.2-0.6,21.9-4.7,26-19
	C138.5,65.2,123.3,44.1,105,44z"/>
<path class="st4" d="M183,144c-9.6-2.8-20.6,2.3-26,11c-7,11.3-1.3,23.3-1,24c4.2,8.5,13.9,15.9,24.5,14c11.3-2,16.1-13.1,16.5-14
	C202.1,166.6,196.8,148,183,144z"/>
<path class="st4" d="M72,188c7.2-9.7,2.6-26.5-8-30c-7.7-2.5-17,2.5-21,10c-4.6,8.7-2.2,21.5,7,26C57.7,197.8,67.4,194.2,72,188z"/>
<path class="st4" d="M195,67c-7.8-0.7-18,10.3-16,19c1.3,5.7,7.3,8.7,10,10c4.8,2.4,14.1,4.9,18,1C213.1,90.7,205.6,67.9,195,67z"/>
<path class="st4" d="M104,219c1.7-6.6,10.7-8.7,12-9c0.5-0.1,10.8-2.3,18,5c0.7,0.7,6.7,6.9,5,13c-2.1,7.4-14.4,11-23.2,7.7
	C109.1,233.1,102.3,225.8,104,219z"/>
<path class="st5" d="M85.5,63c-3.5,0.4-6.6,9.2-5,16.5c1.5,7.1,7,11,8.5,12c5.6,3.6,11.2,3.3,15.5,3c0.7,0,12.1-0.8,12.5-4
	c0.4-3.1-10.1-3.5-19.5-12.5C89.4,70.3,88.9,62.6,85.5,63z"/>
<path class="st5" d="M46.5,167.5c-1-0.1-2.9,5.3-2.5,11c0.2,3,0.5,6.9,3.5,10c4.4,4.5,10.8,3.6,11.5,3.5c5.7-0.9,10-5.5,9.5-6.5
	c-0.5-1-5,2.2-10.5,0.5c-4.3-1.3-6.7-4.9-7.5-6C46.3,174,47.6,167.6,46.5,167.5z"/>
<path class="st5" d="M107.5,217.5c-1.3,0.8-0.2,4.9,0,5.5c1,3.6,3.4,5.6,4.5,6.5c1.4,1.2,4.6,3.4,9,3.5c4.6,0.1,9.6-2,9.5-3.5
	c-0.1-1.4-4.5-0.7-10.5-3.5C112.3,222.4,109.2,216.5,107.5,217.5z"/>
<path class="st5" d="M160,162c-1,0-3.1,6-1.5,12c1.6,5.8,6,9,7.5,10c4.5,2.9,8.9,3,10.5,3c2.2,0,7.8,0,12-4c4.5-4.3,5.3-11.3,4-12
	c-1.1-0.6-2.9,3.5-8.5,6.5c-1.7,0.9-8.8,4.8-14.6,1.9c-3.4-1.7-5-5-6.4-7.9C160.4,166.1,160.8,162,160,162z"/>
<path class="st5" d="M185,75c-1.3,0-3.2,4.1-2.5,8c0.9,4.9,5.5,7.5,9,9.5c3.1,1.8,6.8,3.9,10.5,2.5c2.3-0.9,4.5-3.2,4-4.5
	c-0.5-1.4-3.7-0.3-8.5-2c-1.2-0.4-5.6-2-8.6-5.8C185.9,78.8,186.2,75,185,75z"/>
</svg>
