<?xml version="1.0" encoding="utf-8"?>
<!-- Generator: Adobe Illustrator 22.0.1, SVG Export Plug-In . SVG Version: 6.00 Build 0)  -->
<svg version="1.1"
	 id="svg2" inkscape:version="0.91 r13725" sodipodi:docname="tsar.svg" xmlns:cc="http://creativecommons.org/ns#" xmlns:dc="http://purl.org/dc/elements/1.1/" xmlns:inkscape="http://www.inkscape.org/namespaces/inkscape" xmlns:rdf="http://www.w3.org/1999/02/22-rdf-syntax-ns#" xmlns:sodipodi="http://sodipodi.sourceforge.net/DTD/sodipodi-0.dtd" xmlns:svg="http://www.w3.org/2000/svg"
	 xmlns="http://www.w3.org/2000/svg" xmlns:xlink="http://www.w3.org/1999/xlink" x="0px" y="0px" viewBox="0 0 695.3 165.9"
	 style="enable-background:new 0 0 695.3 165.9;" xml:space="preserve">
<style type="text/css">
	.st0{fill:#C700DD;}
	.st1{fill:#C700DD;fill-opacity:0.465;}
	.st2{fill:#4D4D4D;}
	.st3{fill:#808080;}
	.st4{fill:#666666;}
	.st5{fill:#B3B3B3;fill-opacity:0.465;}
</style>
<defs>
	
	<inkscape:path-effect  effect="spiro" id="path-effect4210" is_visible="true"></inkscape:path-effect>
</defs>
<sodipodi:namedview  bordercolor="#666666" borderopacity="1.0" fit-margin-bottom="0" fit-margin-left="0" fit-margin-right="0" fit-margin-top="0" id="base" inkscape:current-layer="layer1" inkscape:cx="483.19421" inkscape:cy="-3.4024316" inkscape:document-units="px" inkscape:pageopacity="0.0" inkscape:pageshadow="2" inkscape:window-height="1017" inkscape:window-maximized="1" inkscape:window-width="1920" inkscape:window-x="0" inkscape:window-y="30" inkscape:zoom="0.7" pagecolor="#ffffff" showgrid="false">
	</sodipodi:namedview>
<g id="layer1_1_" transform="translate(58.28572,-897.93473)" inkscape:groupmode="layer" inkscape:label="Layer 1">
	<g id="flowRoot4272_1_" transform="matrix(1.3492935,0,0,1.7009222,-84.443883,-217.97281)">
	</g>
	<g id="flowRoot4272-9_1_" transform="matrix(1.3492935,0,0,1.7009222,-82.39813,-120.95499)">
	</g>
	<path id="path4136-8-0_1_" class="st0" d="M531,917.2c4.5,0,16.6,4.9,40.7,14.7c23.9,9.7,30.6,14,33.3,21.7
		c1.5,4.2,0.2,4.8,0.1,24.5c0,18.8,1.2,19.3-0.2,23.4c-2.5,7.2-8.5,12.3-32.7,22.2c-23.2,9.6-34.8,14.3-41.2,14.2
		c-24.7-0.4-60-22.7-60.8-58.8C469.4,942,505.8,917.4,531,917.2z"/>
	<rect id="rect4512_1_" x="22.3" y="913.8" class="st0" width="104.2" height="54.6"/>
	
		<path id="path4138-34-4_1_" inkscape:flatsided="true" inkscape:randomized="0" inkscape:rounded="0" inkscape:transform-center-x="58.003404" inkscape:transform-center-y="-6.1495808" sodipodi:arg1="-3.1155762" sodipodi:arg2="-2.0683787" sodipodi:cx="251.52797" sodipodi:cy="462.43314" sodipodi:r1="271.82303" sodipodi:r2="135.91151" sodipodi:sides="3" sodipodi:type="star" class="st0" d="
		M26.7,994.8l254.1-95.1l-0.2,161.4L26.7,994.8z"/>
	<path id="rect4374-8_1_" class="st0" d="M278.5,900.2c34.7,0.4,62.9-0.1,82-0.5c49.4-1.1,66.9-3,94.9,0
		c32.9,3.5,59.1,11.5,75.7,17.5c0,40.2,0,80.4,0,120.7c-29.3,14.4-54.5,20.5-72.7,23.4c-31.7,5-51.4,1.4-104.9,0
		c-31.4-0.8-57.3-0.5-75,0C278.5,1007.6,278.5,953.9,278.5,900.2z"/>
	<rect id="rect4510_1_" x="3.5" y="938.6" class="st0" width="177.1" height="96.1"/>
	<rect id="rect4512-4_1_" x="21.5" y="1009" class="st0" width="104.2" height="42.3"/>
	<ellipse id="path4546_1_" class="st0" cx="4.2" cy="986.5" rx="11.5" ry="48.4"/>
	<path id="rect4548_1_" class="st1" d="M277.3,899.8c34.2,1.3,61.8,1,80.2,0.5c43.1-1.2,63.9-4.2,97.9-0.5
		c24.6,2.7,44.2,7.6,56.3,11.1c0,44.5,0,89,0,133.5c-12.8,5.3-32.2,12-56.3,15.8c-31.4,4.9-52.4,1.9-89.9,0.2
		c-21.2-1-51.4-1.7-88.2-0.2C277.3,1006.7,277.3,953.2,277.3,899.8z"/>
</g>
<g id="layer1" transform="translate(58.28572,-897.93473)" inkscape:groupmode="layer" inkscape:label="Layer 1">
	<g id="flowRoot4272" transform="matrix(1.3492935,0,0,1.7009222,-84.443883,-217.97281)">
	</g>
	<g id="flowRoot4272-9" transform="matrix(1.3492935,0,0,1.7009222,-82.39813,-120.95499)">
	</g>
	<path id="path4136-8-0" class="st2" d="M524.8,925.1c4.4,0,16.2,4.3,39.8,13.1c23.3,8.7,29.9,12.4,32.5,19.3
		c1.4,3.7,0.1,4.2,0.1,21.7c0,16.7,1.2,17.2-0.2,20.8c-2.4,6.4-8.3,10.9-32,19.8c-22.7,8.5-34,12.7-40.2,12.6
		c-24.1-0.4-58.5-20.2-59.3-52.3C464.6,947.1,500.1,925.3,524.8,925.1z"/>
	<rect id="rect4512" x="28" y="922.1" class="st2" width="101.7" height="48.5"/>
	
		<path id="path4138-34-4" inkscape:flatsided="true" inkscape:randomized="0" inkscape:rounded="0" inkscape:transform-center-x="58.003404" inkscape:transform-center-y="-6.1495808" sodipodi:arg1="-3.1155762" sodipodi:arg2="-2.0683787" sodipodi:cx="251.52797" sodipodi:cy="462.43314" sodipodi:r1="271.82303" sodipodi:r2="135.91151" sodipodi:sides="3" sodipodi:type="star" class="st3" d="
		M32.4,994.1l248.1-84.5l-0.2,143.5L32.4,994.1z"/>
	<path id="rect4374-8" class="st3" d="M278.2,910c33.9,0.3,61.4,0,80.1-0.4c48.2-1,65.3-2.7,92.6,0c32.1,3.1,57.7,10.2,73.9,15.6
		c0,35.8,0,71.5,0,107.3c-28.6,12.8-53.2,18.3-70.9,20.8c-31,4.4-50.2,1.3-102.5,0c-30.6-0.7-55.9-0.4-73.2,0
		C278.2,1005.5,278.2,957.7,278.2,910z"/>
	<rect id="rect4510" x="9.7" y="944.2" class="st4" width="172.9" height="85.5"/>
	<rect id="rect4512-4" x="27.2" y="1006.7" class="st2" width="101.7" height="37.6"/>
	<ellipse id="path4546" class="st2" cx="10.3" cy="986.7" rx="11.2" ry="43.1"/>
	<path id="rect4548" class="st5" d="M277,909.6c33.4,1.2,60.3,0.9,78.3,0.4c42.1-1.1,62.4-3.7,95.6-0.4c24,2.4,43.2,6.8,55,9.9
		c0,39.6,0,79.1,0,118.7c-12.5,4.7-31.4,10.7-55,14c-30.7,4.4-51.2,1.7-87.8,0.2c-20.7-0.8-50.1-1.5-86.1-0.2
		C277,1004.6,277,957.1,277,909.6z"/>
</g>
</svg>
